/* XPM */
static char *_489486496be4c11a47f9c9b9aa84669JcebWNZHkwLrrz9J[] = {
/* columns rows colors chars-per-pixel */
"50 50 195 2 ",
"   c #030303",
".  c #090203",
"X  c #030804",
"o  c #0A0800",
"O  c #03030A",
"+  c #0A0209",
"@  c #01090B",
"#  c #000312",
"$  c #000B13",
"%  c #00031C",
"&  c #000A1E",
"*  c #000423",
"=  c #000A25",
"-  c #00072B",
";  c #000C2A",
":  c #01112D",
">  c #000534",
",  c #010B34",
"<  c #080D37",
"1  c #00053B",
"2  c #000D3C",
"3  c #021134",
"4  c #091837",
"5  c #02123D",
"6  c #00193B",
"7  c #031833",
"8  c #09203F",
"9  c #000744",
"0  c #000940",
"q  c #000C44",
"w  c #000E4B",
"e  c #061141",
"r  c #021540",
"t  c #011444",
"y  c #081340",
"u  c #041A45",
"i  c #03144D",
"p  c #011A4B",
"a  c #0A194D",
"s  c #000D52",
"d  c #001555",
"f  c #031A55",
"g  c #081D56",
"h  c #00145B",
"j  c #031A5B",
"k  c #0D2242",
"l  c #112747",
"z  c #062456",
"x  c #0C2454",
"c  c #0C2A55",
"v  c #0C235E",
"b  c #122B53",
"n  c #10205C",
"m  c #112C5D",
"M  c #183158",
"N  c #20335E",
"B  c #001660",
"V  c #031B63",
"C  c #0A1F62",
"Z  c #001B6B",
"A  c #001E73",
"S  c #002063",
"D  c #0C2163",
"F  c #0D2A67",
"G  c #04256E",
"H  c #0A256C",
"J  c #042B6F",
"K  c #0C296F",
"L  c #102866",
"P  c #10276B",
"I  c #183A6C",
"U  c #052473",
"Y  c #0A2574",
"T  c #072877",
"R  c #0B2A75",
"E  c #03277A",
"W  c #062A7A",
"Q  c #0B2D7C",
"!  c #0B257A",
"~  c #142E78",
"^  c #0D3479",
"/  c #183574",
"(  c #153A74",
")  c #1B3C74",
"_  c #193B7C",
"`  c #19367C",
"'  c #1E467A",
"]  c #214273",
"[  c #20407D",
"{  c #062C83",
"}  c #0C2E84",
"|  c #052C89",
" . c #0B2E8F",
".. c #022684",
"X. c #083085",
"o. c #0C328D",
"O. c #1A3B8C",
"+. c #042D93",
"@. c #082E92",
"#. c #062D9B",
"$. c #0A2F9B",
"%. c #073294",
"&. c #0B3594",
"*. c #0E3997",
"=. c #073199",
"-. c #0B349C",
";. c #0C3E9D",
":. c #14399A",
">. c #1B3E98",
",. c #203F80",
"<. c #0731A2",
"1. c #0A33A4",
"2. c #0F39A5",
"3. c #0A3BAC",
"4. c #0C33AA",
"5. c #143CA5",
"6. c #0B3BB3",
"7. c #143CB3",
"8. c #133FB8",
"9. c #1C4289",
"0. c #1E4395",
"q. c #2B4989",
"w. c #274A8A",
"e. c #3A4F81",
"r. c #2E5489",
"t. c #2D5088",
"y. c #395886",
"u. c #38588E",
"i. c #274991",
"p. c #2A4796",
"a. c #384F93",
"s. c #2C579A",
"d. c #2E5894",
"f. c #335394",
"g. c #3D5B96",
"h. c #365898",
"j. c #3C5A9A",
"k. c #315893",
"l. c #3C6198",
"z. c #0E42AF",
"x. c #0C43B7",
"c. c #1246BE",
"v. c #1556B4",
"b. c #2447A1",
"n. c #2353A7",
"m. c #3256A0",
"M. c #2350B5",
"N. c #275AB3",
"B. c #385AB1",
"V. c #3561A8",
"C. c #475C87",
"Z. c #415683",
"A. c #50679B",
"S. c #4A6BBD",
"D. c #5773B6",
"F. c #5675A4",
"G. c #063FCA",
"H. c #0B44C3",
"J. c #0248C1",
"K. c #044BCB",
"L. c #0D46CB",
"P. c #1444C2",
"I. c #134CCC",
"U. c #1C5CC4",
"Y. c #094BD6",
"T. c #144FD9",
"R. c #0952D5",
"E. c #2055C7",
"W. c #2A56C1",
"Q. c #496EC6",
"!. c #5C7DCE",
"~. c #5A79C3",
"^. c #607BC2",
"/. c #6A83BC",
"(. c #738FBE",
"). c #6482C2",
"_. c #7892CC",
"`. c #6A87D4",
"'. c #708AD4",
"]. c #7D9CDC",
"[. c #7793DC",
"{. c #819FDD",
"}. c #889DD4",
"|. c #88A4D2",
" X c #819FE8",
".X c #819EE2",
"XX c #87A6E6",
"oX c #8CA8E2",
"OX c #99B4E8",
"+X c #9BB7F8",
"@X c #98B6F5",
"#X c #A7C7EE",
"$X c #ACC1EE",
"%X c #AECDF9",
"&X c #D2F2FF",
/* pixels */
"                                O O           O O O         O +                                     ",
"                                              O O O         O O O                                   ",
"                                                                                                    ",
"                                                O O                                                 ",
"                                O O             O O O O                                             ",
"                                            O   O O O O                                             ",
"                              O O O           O + O           O                                     ",
"                              O O O         O . .           O O O                                   ",
"                                .     O O + +     o       . + +                                     ",
"                                    O O     O         o o                                           ",
"                                O       o   O @ X         . + O                                     ",
"                                  @ o     X @ @ $ # O + +                                           ",
"                                  O .       O # % * % # O     X                                     ",
"                                    O O # & 7 l M M x 2 - % # @                                     ",
"                                X O * t / h.l.r.r.w.s.V.s.I 6 # O                                   ",
"        O O O                 @ O & m j.m.R i q 0 9 s h J d.u.b % O                                 ",
"        + + O       O         $ * ] g.F 0 1 , , 2 2 , , - , v g.] * O     O       O                 ",
"        + +     X O         @ % ) f.j 1 , , , < < , 3 : ; 3 0 d k.I % # +       O                   ",
"        O                 O * x j.d 1 r 3 5 5 2 e e 5 5 r 2 2 , t y.b * O           O               ",
"                    o     # 2 a.C w r 5 u t i i a 0 t 2 t u 5 5 , c t.2 O   .       O O             ",
".               O       O % L p.q 2 t p f d j v f e.Z.C.N u i i p 1 i.F #   + O                     ",
".               O     X   * q.G q t g f d j oXD.w /.OX|.$Xe.w f 2 i W ,.& O   +                     ",
"+       O O O O   O   O O 3 t.h d d C D g (.&XF.d s d q A.}.j j C d h q.: O #       .               ",
"+ O     O O O O O O     # k ' d h D V V _.%X#X|.).[.^.V u._.B H V B h ' k # O +     .         O     ",
"+ O     O O O O O     O # l ( j S H H '.+XoXOXOX@X+X@XH f.`.Z ! U Z B ( k # # O                     ",
"+ O     O O     O     O O k _ B G G ~ '. X.X].].{.XX].G i.!.U } Y G V _ k # #         O             ",
".                       O 4 ` A W W W Q !.`.`.~.D.~.S.Q 0.Q.E E R Y Z _ 4 O O       + +             ",
"                  O       = ~ A E E { { { B.S.p.W { } ..:.N.{ X.R R Z / = O         + +             ",
".                 O       % n Y E | :.@. .o.>.o. .@.$.-.*.*.| o.} R U v #           + +             ",
"                O O       # y D Q &.+.$.-.@.@.&.-.$.<.#.$.+.&.%.o.T P 2 O           O O             ",
"        O O       O   +   O & u U &.1.1.<.-.=.=.-.<.1.<.1.-.2.=.=.E a * O         O     O           ",
"O       O O       O + +   O   ; H | 5.4.7.6.3.3.3.6.6.6.3.1.2.2.| H > #           O     O           ",
"        O O                   # p W :.7.P.P.P.H.H.H.L.H.H.c.z.&./ 2 % #           O                 ",
"                              @ * z O.5.8.I.I.K.R.Y.Y.T.I.z.;.9.a % # # O                           ",
"                              O @ & z 0.M.x.J.R.K.R.Y.G.P.M.9.z * # O @                             ",
"        O                       X O % t ^ n.N.v.U.U.E.W.b.R 2 % # O O O                             ",
"                              O   O O # % * 6 c c m m t - % # O   O O                               ",
"                              O   + + O   O   O # # # O           O                                 ",
"                                  + + O         O O O @ O                                           ",
"                                O     +             + O                                             ",
"                                                        + O +               O O     O O             ",
"                                            O   O         O + +     O O O   O O     O               ",
"                                          O O O                             O O                     ",
"                                        O                               O   O                       ",
"                                  O O O O                 O                                         ",
"                                    O O O           O + + + O                                       ",
"                                                  O + + +                                           ",
"                                                + + + O                                             ",
"                                                O                                                   ",
"                                                                                                    "
};
