/* XPM */
static char *eatdown1709543041[] = {
/* columns rows colors chars-per-pixel */
"50 50 221 2 ",
"   c #020202",
".  c #0A0401",
"X  c #050901",
"o  c #0B0B00",
"O  c #04030A",
"+  c #0A010A",
"@  c #0A0A0A",
"#  c #040B09",
"$  c #120D00",
"%  c #14000E",
"&  c #1B0500",
"*  c #0E1200",
"=  c #141300",
"-  c #1B1500",
";  c #1B1B00",
":  c #131900",
">  c #0A0013",
",  c #030214",
"<  c #1B0017",
"1  c #13001B",
"2  c #1B001C",
"3  c #28020B",
"4  c #3E0000",
"5  c #221B00",
"6  c #23001D",
"7  c #1F2200",
"8  c #232300",
"9  c #252A00",
"0  c #292900",
"q  c #2A2500",
"w  c #2C3000",
"e  c #333300",
"r  c #3C3D00",
"t  c #383700",
"y  c #3B2B00",
"u  c #240022",
"i  c #2B0025",
"p  c #29002B",
"a  c #31002D",
"s  c #370038",
"d  c #413D00",
"f  c #4A2208",
"g  c #6B2609",
"h  c #43003C",
"j  c #434400",
"k  c #4A4700",
"l  c #434900",
"z  c #4D4B00",
"x  c #544B00",
"c  c #535301",
"v  c #5B5B01",
"b  c #565C00",
"n  c #614100",
"m  c #625D01",
"M  c #5D6201",
"N  c #636401",
"B  c #666705",
"V  c #767900",
"C  c #7B7D01",
"Z  c #747505",
"A  c #636210",
"S  c #726F10",
"D  c #777516",
"F  c #7A7730",
"G  c #520153",
"H  c #5E085E",
"J  c #4B0046",
"K  c #610057",
"L  c #76374C",
"P  c #700062",
"I  c #700973",
"U  c #A53333",
"Y  c #817B1B",
"T  c #A5472E",
"R  c #937F29",
"E  c #8F4D37",
"W  c #C17D3C",
"Q  c #9C2E51",
"!  c #A8324B",
"~  c #870878",
"^  c #8C1778",
"/  c #872B75",
"(  c #B72368",
")  c #B02270",
"_  c #AF1970",
"`  c #CE7A60",
"'  c #D4724B",
"]  c #7D800F",
"[  c #8D8F00",
"{  c #888A0B",
"}  c #939401",
"|  c #9B9C00",
" . c #98910F",
".. c #898917",
"X. c #908F1B",
"o. c #8F9010",
"O. c #959218",
"+. c #A49F0D",
"@. c #A3A200",
"#. c #B1B201",
"$. c #A7A91F",
"%. c #8B8C25",
"&. c #858627",
"*. c #959628",
"=. c #A19F2C",
"-. c #B59D21",
";. c #9BA02C",
":. c #A5AA2C",
">. c #A9AA25",
",. c #B8BB2B",
"<. c #AEB031",
"1. c #B5B73C",
"2. c #B0A834",
"3. c #C88638",
"4. c #BEC332",
"5. c #F1EF04",
"6. c #F5F602",
"7. c #FBF503",
"8. c #F6FD04",
"9. c #FEFE02",
"0. c #FCF60B",
"q. c #F6FC0A",
"w. c #FDFD0B",
"e. c #EEF619",
"r. c #F4F613",
"t. c #FBF614",
"y. c #F5FB13",
"u. c #FDFD13",
"i. c #F5F71C",
"p. c #FDF61B",
"a. c #F5FA1B",
"s. c #FBFC1B",
"d. c #DBDB2D",
"f. c #C6C838",
"g. c #D9D936",
"h. c #CACD30",
"j. c #FFEE2B",
"k. c #FFF522",
"l. c #F6FC25",
"z. c #FBFB23",
"x. c #F5F62E",
"c. c #F6FA2B",
"v. c #FBFC2B",
"b. c #F9F629",
"n. c #EAEC3B",
"m. c #E2E63B",
"M. c #F9E938",
"N. c #F5F534",
"B. c #FCF534",
"V. c #F3F934",
"C. c #FBFC34",
"Z. c #F4F53C",
"A. c #FDF33B",
"S. c #F5FB3A",
"D. c #FBFB3B",
"F. c #EAF23C",
"G. c #BE974C",
"H. c #B8B944",
"J. c #A3A44A",
"K. c #CF8048",
"L. c #D6824F",
"P. c #FCBF54",
"I. c #BFC34B",
"U. c #C9C543",
"Y. c #C7C847",
"T. c #CCD149",
"R. c #D7D948",
"E. c #D8D854",
"W. c #FFCA56",
"Q. c #FBDA59",
"!. c #F3D84E",
"~. c #DDE155",
"^. c #DDE04B",
"/. c #EBEB44",
"(. c #E6E54C",
"). c #EBEC4A",
"_. c #E7E643",
"`. c #FFE34C",
"'. c #F9EB4A",
"]. c #EDF345",
"[. c #ECF24A",
"{. c #EFF845",
"}. c #F3F544",
"|. c #FBF443",
" X c #F4F944",
".X c #FBFC41",
"XX c #F4F44B",
"oX c #FDF44B",
"OX c #F6FB4D",
"+X c #EBEC53",
"@X c #E4E154",
"#X c #EFF057",
"$X c #F7F854",
"%X c #C3C16A",
"&X c #FFC766",
"*X c #F0ED62",
"=X c #F2F864",
"-X c #850686",
";X c #8D1B8C",
":X c #A41D9D",
">X c #B92A8B",
",X c #B71DB7",
"<X c #A910A8",
"1X c #BB2EB6",
"2X c #D6239C",
"3X c #C72F98",
"4X c #DB19BD",
"5X c #C11ABF",
"6X c #CB25A8",
"7X c #C528B6",
"8X c #CE1BC5",
"9X c #D71ACE",
"0X c #D41BD0",
"qX c #EE1BC0",
"wX c #F211CF",
"eX c #E515DD",
"rX c #E818D7",
"tX c #EB0ADA",
"yX c #DE27C5",
"uX c #DA22D8",
"iX c #E120D1",
/* pixels */
"    O                 O , O   .   X = 7 d M ] } | | [ V v j 8 o o     .             .     O         ",
"          .         #       . o 8 c %.H.R.).N.V.C.V.S.XX+XE.1.*.z 7 o . .       .                   ",
"O               .     . . o w ] h.m.S.S.c.z.u.u.u.u.u.s.l.v.C.S.{.4.] w .   .     O O   O O         ",
"    #             .   . 8 D R. Xe.s.s.q.0.9.9.9.9.9.9.9.9.9.7.q.y.C. XE.D ; =   .       O     .     ",
"        O O   . . $ $ z 4.{.V.i.u.9.9.9.7.w.9.9.9.9.9.9.9.9.9.9.9.6.a.c.OXf.k $   @   #     O O     ",
"        O O     . - Y @X.Xa.y.u.9.9.9.9.9.9.9.9.7.9.9.9.9.9.9.9.9.9.w.0.i..XR.&.; . o   . . . +     ",
"O   O         o q O.$XD.r.w.q.6.9.9.9.9.9.9.9.9.9.9.9.9.9.9.9.9.9.7.9.w.8.r.C.[.*.7 X   .   + .     ",
"O   O       o ; 2.|.v.6.9.w.9.w.9.9.9.9.9.9.9.9.9.9.9.9.9.9.9.9.9.9.w.9.9.9.q.v.OX:.7 X .     O     ",
"  O @   O   = :.}.s.u.9.9.7.9.w.9.9.9.9.9.9.8.9.9.9.9.9.9.9.9.9.w.9.9.7.9.9.9.r.l.{.:.7 X     O     ",
".         = *.[.l.w.9.9.9.9.9.9.9.9.9.9.9.8.9.9.9.8.9.9.9.9.9.9.9.8.w.9.9.9.9.w.u.l.{...:           ",
"    . . $ A +XC.u.w.0.w.9.9.9.9.9.9.9.9.9.9.9.9.9.9.9.9.9.9.9.9.9.9.w.w.9.9.w.0.w.y.v.[.M o X       ",
"  X . . r T.V.t.w.w.w.w.w.9.9.9.9.9.9.9.9.9.9.9.9.9.9.9.9.9.9.9.9.9.w.9.9.9.9.9.9.q.y.D.T.t         ",
"    . = $..Xi.w.9.9.9.w.w.w.w.9.9.9.9.9.9.9.9.9.9.9.9.9.9.9.9.9.9.9.9.9.8.9.9.9.9.w.w.z.S.$.*       ",
"  X . v ).i.w.9.9.9.9.9.w.w.9.8.9.9.9.9.9.9.9.9.9.9.9.9.9.9.9.9.7.9.9.9.8.8.9.9.7.u.0.u.i.{.c .     ",
"  * = H.n.z.w.9.9.9.9.9.8.8.9.9.9.9.9.9.9.9.9.9.9.9.9.9.9.9.9.9.9.9.9.9.8.9.9.9.w.0.w.7.u.c.<.5 .   ",
"  X c +XB.u.9.9.9.9.9.9.9.8.9.9.9.9.9.9.9.9.9.9.9.9.9.9.9.9.9.9.w.9.9.9.9.8.9.9.0.0.w.w.9.s.).c X   ",
"  O :.|.p.w.6.9.9.9.9.9.9.8.7.9.9.9.9.9.9.9.9.9.9.9.8.9.9.9.9.9.9.9.9.9.9.9.9.9.9.9.9.7.w.s.B.+.:   ",
"  e g.b.w.9.9.9.9.9.9.9.9.9.9.9.9.9.w.w.9.9.9.w.9.w.9.9.9.9.9.9.9.9.9.9.9.9.9.9.9.9.9.9.w.t.z.d.e @ ",
"X B XXs.w.9.w.8.9.9.9.9.9.9.w.9.9.9.9.9.9.8.w.9.9.9.9.9.9.9.9.9.9.9.9.9.9.9.9.9.9.9.9.9.w.u.u.OXM @ ",
": *.D.w.w.9.7.w.9.9.9.9.9.9.w.w.9.9.9.9.9.9.9.9.9.9.9.9.9.9.9.9.9.9.9.9.9.9.9.9.9.9.9.9.9.w.t.A.*.* ",
"9 I.v.w.0.u.w.w.9.9.9.9.9.9.9.w.w.9.9.9.9.9.9.9.9.9.9.9.9.9.9.9.9.9.9.9.9.9.9.9.9.9.9.9.9.9.u.D.I.7 ",
"r ^.v.w.w.w.u.w.9.9.9.9.9.9.9.w.w.9.9.9.9.9.9.9.9.9.w.9.9.9.9.9.9.9.9.9.9.9.9.9.9.9.9.9.9.9.w.b.~.l ",
"M /.p.9.w.0.w.9.9.9.w.9.9.9.w.0.9.9.9.9.9.9.9.9.9.9.9.9.9.9.9.9.9.9.9.9.9.9.9.9.9.9.9.9.9.9.9.i.).M ",
"] S.p.w.0.w.9.9.9.9.w.w.9.9.9.9.w.9.9.9.9.9.8.9.8.9.8.7.9.9.9.9.9.9.9.9.9.9.9.9.9.9.9.9.9.9.9.s. XV ",
"} S.t.9.9.9.9.9.9.9.w.q.q.8.w.9.9.w.9.9.w.9.q.q.q.q.w.9.9.w.9.9.9.9.9.9.9.9.9.9.9.9.9.9.9.9.9.u.S.} ",
"| C.p.9.w.7.9.9.8.6.s.l.l.a.w.9.9.9.9.7.9.9.y.r.l.r.0.w.9.9.9.9.9.9.9.9.9.9.9.9.9.9.9.9.9.9.9.u.C.| ",
"@.D.s.w.w.9.9.9.9.s.Z.m.h.n.l.u.9.9.9.9.9.w.y.l.#.#.z.0.9.9.9.8.9.9.9.9.9.9.9.9.9.9.9.9.9.9.9.u.v.@.",
"@.V.s.w.w.9.9.9.u.V.,.k r M g.l.q.9.9.9.9.w.a.F.z x M.k.7.9.9.9.9.9.9.9.9.9.9.9.9.9.9.9.9.9.9.u.C.| ",
"} N.p.w.8.9.9.w.v.g.t . o = m XXz.9.9.9.w.t.S.$.- - -.oXp.9.9.9.9.w.9.9.9.9.9.9.9.9.9.9.9.9.9.s.Z.[ ",
"C  Xa.u.8.w.9.y.x. .$ $   . 5 U.v.w.8.9.u.b.+Xx $ $ g *XA.0.w.9.9.9.9.9.9.9.9.9.9.9.9.9.9.9.9.s.F.Z ",
"v ).v.w.8.9.7.s.'.m .   o   o X.S.w.8.9.t.A.2.- . & f K.'.p.u.9.9.9.9.9.9.9.9.9.9.9.9.9.9.9.9.z.+Xb ",
"d @XV.u.9.9.q.l.).x o   X X o S |.s.9.u.i.'.x . . 3 L E Q.j.t.9.9.9.9.9.9.9.9.9.9.9.9.9.9.9.w.v.~.r ",
"8 1.Z.u.8.9.w.z.m.k o .   X X D |.s.7.u.C.$.:     < / Q 3.'.z.8.8.w.9.9.9.9.9.9.9.8.9.9.9.w.0.S.H.7 ",
"= %.Z.u.9.9.w.a. XB o .   X o *.A.0.w.z./.N   #   u ^ 3XT W.j.u.w.9.9.9.9.9.8.9.9.9.9.9.9.w.u.Z.%.o ",
". v  Xt.w.9.w.a.C.} $ . . o 0 f.z.w.u.S.2.5     + 6 ^ 3X! ' `.u.7.9.9.9.7.u.w.9.9.9.9.9.8.u.s.}.b o ",
"X 9 g.l.w.8.w.s.z._.d . o * V n.s.u.l.{.m & o   . i I 6X3X! W.k.0.9.9.9.w.w.0.w.9.9.7.9.w.p.b.g.0 X ",
"  o o..Xi.w.w.w.p.A.h.N e V d.v.q.y.S.<.5 .     . i P 7XyX_ K.`.k.7.9.9.9.w.7.9.9.7.9.w.u.z..X{ *   ",
"  . k ).v.u.9.9.u.p.x.Z.m.N.v.q.w.z.$XM o .   O . 6 H 7X9X6X! &XA.u.9.9.9.9.9.w.w.7.9.w.u.x.+Xj .   ",
"O X ; *.Z.s.8.9.9.9.u.s.r.s.w.w.q.S.1.7 o       O < J :X9XyX) ` Q.k.w.9.7.9.8.8.9.9.w.0.u.N.=.- .   ",
"    . k (.C.u.9.9.7.9.9.w.w.7.q.s.OXM X     .   O 1 a ;X9XrX6XQ &XA.s.w.9.9.8.9.8.w.0.p.v._.d o     ",
"  X   = X.].s.w.9.9.7.0.u.u.u.u.b.,.8   X     O , > u I 0XrX9X) ' `.k.7.9.9.9.8.8.8.7.z.Z.O.$       ",
"      o q Y..Xy.w.9.w.u.7.u.0.v. XB *     #   O O , 1 G 5XeXwX2XU &XA.t.7.9.9.8.8.w.t.N.f.9 o       ",
"  @     $ z ).b.t.8.w.6.9.9.u.N.U.7       O O O O O > h <XeXtXqX( ' `.k.0.9.9.9.9.q.c.(.b X         ",
"  #     . $ B XXl.u.8.9.9.w.r.}.S X X   O   + + O . . a -XuXtXwX2X! P.j.u.7.7.9.w.l.XXZ o   .       ",
"O           ; ..OXe.u.8.7.q.v.f.8 .     @     .     . 6 H ,XeXtX4X( W oXp.u.0.s.v.}.%.o X   # O     ",
"O   X #   @ . = ] $Xv.r.u.s.XXC o   X   O         O   % h -XuXeXyX3Xg !.N.l.k.A./.o.- . X #   .     ",
"  X   X O   . . 7 S ).C.v.oXY.q X       . .       ,   + u G ,XuX8X>X4 R $XZ..X(.] = . .       O     ",
".             @   * v R.$X*XD o             X   O O O O + p I 1X1X^ 3 y E.=XT.M o O     O O O O     ",
".             .     o e J.%Xq .                 O   O O . + s H I J % $ F J.w * X         @         ",
". .                   X : e o .         O O         . . . + 2 p i i % * ; = X             O         "
};
