/* XPM */
static char *eatleft1709543041[] = {
/* columns rows colors chars-per-pixel */
"50 50 203 2 ",
"   c #020201",
".  c #090301",
"X  c #050900",
"o  c #0C0B00",
"O  c #03020A",
"+  c #0B030A",
"@  c #080909",
"#  c #140D00",
"$  c #13000C",
"%  c #1B0006",
"&  c #131300",
"*  c #1A1700",
"=  c #1C1C00",
"-  c #0C0012",
";  c #060015",
":  c #130013",
">  c #1A0013",
",  c #1C001C",
"<  c #221D00",
"1  c #26001A",
"2  c #360008",
"3  c #1F2400",
"4  c #232200",
"5  c #2A2700",
"6  c #2B2C00",
"7  c #312C00",
"8  c #2C3300",
"9  c #363900",
"0  c #393B00",
"q  c #363500",
"w  c #0F0020",
"e  c #1A0023",
"r  c #1F0029",
"t  c #2B0029",
"y  c #2C0033",
"u  c #38003A",
"i  c #5C171A",
"p  c #413E00",
"a  c #603F00",
"s  c #652809",
"d  c #43003A",
"f  c #3D4100",
"g  c #434200",
"h  c #4E4600",
"j  c #474900",
"k  c #4D4D00",
"l  c #504D00",
"z  c #535300",
"x  c #595600",
"c  c #555900",
"v  c #5C5C00",
"b  c #5C6300",
"n  c #646400",
"m  c #696601",
"M  c #726F04",
"N  c #6F7100",
"B  c #747401",
"V  c #767900",
"C  c #7A7B04",
"Z  c #79760D",
"A  c #7C7C1A",
"S  c #3F004F",
"D  c #560055",
"F  c #470045",
"G  c #6C0069",
"H  c #66116E",
"J  c #7E007F",
"K  c #650D75",
"L  c #9F3B3D",
"P  c #A13630",
"I  c #817E00",
"U  c #837C11",
"Y  c #A2432F",
"T  c #AE2C5C",
"R  c #B12D52",
"E  c #B13358",
"W  c #B7187D",
"Q  c #872268",
"!  c #A32064",
"~  c #BC216F",
"^  c #AF2271",
"/  c #A94051",
"(  c #CD7652",
")  c #8D8E00",
"_  c #838603",
"`  c #918D0F",
"'  c #8D9100",
"]  c #8E900B",
"[  c #929401",
"{  c #9B9C00",
"}  c #989800",
"|  c #888716",
" . c #94941B",
".. c #999911",
"X. c #A39F08",
"o. c #9AA00C",
"O. c #A3AA0D",
"+. c #B2AF06",
"@. c #B5B108",
"#. c #ABAC1B",
"$. c #B0A414",
"%. c #B7BB19",
"&. c #B9812E",
"*. c #9FA423",
"=. c #9FA335",
"-. c #AAA526",
";. c #B7B728",
":. c #BCBC36",
">. c #C98534",
",. c #BCC327",
"<. c #C4C418",
"1. c #D1D11B",
"2. c #E1DE1F",
"3. c #F7F700",
"4. c #FCF701",
"5. c #F6FB02",
"6. c #FEFE01",
"7. c #FEFD0B",
"8. c #F6F90C",
"9. c #E8E91D",
"0. c #FFF612",
"q. c #F4FA13",
"w. c #FDFD14",
"e. c #FDF71E",
"r. c #F5F91C",
"t. c #FCFC1B",
"y. c #F7F61F",
"u. c #C9C926",
"i. c #CCD12F",
"p. c #D9D925",
"a. c #D9DC2A",
"s. c #CFCD34",
"d. c #C8C635",
"f. c #CDD132",
"g. c #DDDF34",
"h. c #D5D837",
"j. c #F5CC3E",
"k. c #DDE03F",
"l. c #DDE132",
"z. c #E3E62B",
"x. c #ECEA25",
"c. c #FFEE2F",
"v. c #FEF623",
"b. c #F5FC23",
"n. c #FBFC23",
"m. c #F4F52C",
"M. c #FCF62B",
"N. c #F5F829",
"B. c #FBFB2B",
"V. c #F2F222",
"C. c #EAEB34",
"Z. c #E7E738",
"A. c #F3EE32",
"S. c #FFEC39",
"D. c #EEF035",
"F. c #EFF338",
"G. c #EDF830",
"H. c #F5F633",
"J. c #FFF536",
"K. c #F6FB35",
"L. c #FAFB34",
"P. c #FCF439",
"I. c #F5FA3C",
"U. c #F4F53E",
"Y. c #ECF327",
"T. c #CF8A51",
"R. c #D58155",
"E. c #DAD841",
"W. c #C4C752",
"Q. c #FDCD47",
"!. c #FDD64D",
"~. c #FBD154",
"^. c #EEED43",
"/. c #F1ED43",
"(. c #FAF541",
"). c #780084",
"_. c #8B058B",
"`. c #920F8F",
"'. c #970697",
"]. c #941694",
"[. c #882484",
"{. c #B112B1",
"}. c #C21685",
"|. c #E219B7",
" X c #CF27B0",
".X c #D028B1",
"XX c #CF18AE",
"oX c #C71BC4",
"OX c #D61CC5",
"+X c #C91ED3",
"@X c #D512DB",
"#X c #EF12C4",
"$X c #EF0FDF",
"%X c #F909DE",
"&X c #E91DD8",
"*X c #C920D1",
"=X c #E80DEA",
"-X c #FC05EE",
";X c #F208E7",
":X c #FC01F3",
">X c #F808F5",
",X c #EC10F6",
"<X c #EA18E7",
/* pixels */
". .       X     .         X   . o < 0 c B ' { o.{ ' V v f 4 o X                         O           ",
".     X                 X X 4 x  .;.l.F.H.m.n.n.n.B.I.C.g.u...m 8 X X o     @                       ",
"  X         X         & f [ p.m.N.b.n.t.w.w.7.7.7.7.w.t.n.n.L.H.l.o.z # . o   .       O   O @       ",
"        @       X o g -.Z.B.t.6.7.7.6.6.7.6.6.4.6.4.4.6.6.4.4.w.t.m.^.:.x . .             @ O       ",
"              . 3 [ Z.B.e.7.4.6.6.6.6.6.7.7.6.7.6.6.6.6.6.7.6.6.7.7.e.M.D.O.0 o   O   O             ",
"        X   o k i.Y.t.5.6.6.6.7.6.6.6.6.w.w.6.4.4.6.6.6.4.6.6.6.7.6.7.7.7.B.h.n # X     @     X     ",
"        . # B C.B.8.7.6.6.6.6.4.6.4.6.6.4.6.6.6.6.6.5.7.7.6.6.6.6.4.4.6.6.8.r.I.` #   .             ",
". . .   # | U.w.6.6.6.6.6.7.7.7.w.w.w.w.7.7.6.6.6.6.6.6.6.6.6.6.4.7.6.6.6.6.7.q.I.#.< .             ",
"O     & _ K.t.7.4.6.6.6.6.5.w.n.H.x.A.m.b.w.7.6.6.6.6.6.6.6.6.6.6.6.6.6.6.6.6.7.t.m.#.4             ",
"    X C K.8.7.6.6.6.4.7.7.t.z.{ n g l x } p.r.7.6.6.6.6.6.6.6.6.6.6.7.6.6.6.6.7.6.w.B.} * X         ",
"  X b C.t.7.4.7.7.7.6.7.e.<.f o X   . . . q %.L.8.6.6.7.6.4.4.6.6.6.6.6.6.6.6.4.6.4.w.H._ X X       ",
"X 8 a.t.7.6.6.6.7.4.6.w.V.c X   X       . . g z.q.6.6.6.6.6.6.7.6.6.5.6.6.6.6.7.6.7.3.e.^.j .       ",
"& *.N.7.6.4.4.6.6.6.6.8.x.8 X         O + . 4 a.r.6.6.6.6.6.6.6.6.6.6.6.6.6.6.6.4.7.6.7.b.,.4       ",
"8 W.(.n.w.7.7.6.7.6.6.w.r.N o . X   X   . # x A.w.6.6.6.6.6.6.6.6.6.6.6.6.6.6.6.6.4.7.6.7.K.Z o     ",
"o 4 Z s.H.w.6.6.4.7.4.6.w.9.M < X X X . * n 9.e.7.6.6.6.6.7.6.6.6.7.6.6.7.8.6.6.6.6.6.6.6.r.h.5     ",
"    . 4 V u.H.n.w.7.7.6.6.t.A.u...C B ` u.H.q.7.6.6.6.6.7.6.6.6.4.6.6.6.7.6.6.6.4.6.6.6.6.7.H._ X   ",
"        . < Z d.P.q.8.5.6.7.w.t.v.B.B.n.r.w.7.7.6.6.6.6.6.5.6.6.6.6.6.6.6.6.6.6.6.6.6.6.4.7.8.1.= X ",
"            . < m <.K.b.r.w.6.4.6.4.6.6.6.6.6.6.6.6.6.6.6.6.6.6.6.6.6.6.6.6.6.6.6.6.6.6.6.6.6.x.l X ",
"        X       . 4 b ,.I.b.8.6.6.6.6.6.4.6.6.4.7.6.6.6.6.6.6.6.6.6.6.6.6.6.6.6.6.6.6.6.6.6.6.B.| & ",
"  + O               X = b %.H.n.w.7.7.7.6.6.6.6.6.6.6.6.6.6.6.6.6.6.6.6.6.6.6.6.6.6.6.6.6.6.6.v.:.= ",
"O O                     . = v ;.A.n.7.4.7.6.5.5.6.6.6.6.6.6.6.6.6.6.6.6.6.6.6.6.6.6.6.6.6.6.6.r.k.9 ",
"O O                         X * x @.P.L.t.w.6.6.6.6.6.6.4.6.5.6.6.6.6.6.6.6.6.6.6.6.6.6.6.6.6.t.D.c ",
"            .               X     & k -.F.n.8.6.5.5.6.6.6.4.6.6.6.6.6.6.6.6.6.6.6.6.6.6.6.6.6.7.N.V ",
"                        .         X   & h @.Y.q.8.5.6.6.7.6.6.6.6.6.6.6.6.6.6.6.6.6.6.6.6.6.6.7.b.' ",
"                  O     .   O           . # h +.w.5.6.6.6.6.6.7.6.6.6.6.6.6.6.6.6.6.6.6.6.6.6.7.n.[ ",
"      O         O ; - : > , e w , > > % # # h +.t.6.6.6.6.6.6.6.6.6.6.6.6.6.6.6.6.6.6.6.6.6.6.7.B.{ ",
"+ +         O O ; w r u D G J '.'.].Q i a $.x.w.4.6.6.6.6.6.6.6.6.6.6.6.6.6.6.6.6.6.6.6.6.6.6.7.N.' ",
".     + - : r y S K ].{.oXOX XOX.X^ / T.!.J.8.6.6.6.6.4.7.6.6.6.6.6.6.6.6.6.6.6.6.6.6.6.6.6.6.w.H.V ",
"      - t D _.{.+X@X=X=X;X&X X! Y >.Q.P.v.8.6.6.6.6.4.6.6.6.6.6.6.6.6.6.6.6.6.6.6.6.6.6.6.6.6.w.U.c ",
". . , F _.oX<X>X=X>X>X;X|.W E R.!.B.e.4.6.6.5.6.6.6.6.6.6.6.6.6.6.6.6.6.6.6.6.6.6.6.6.6.6.6.6.t.g.9 ",
"- y ).oX<X;X;X-X>X;XOX}.L >.Q.c.v.w.7.6.6.6.6.6.6.6.6.6.6.7.6.6.6.6.6.6.6.6.6.6.6.6.6.6.6.6.6.v.:.= ",
", H +X,X:X:X%X|.|.}.T ( ~.P.0.6.6.6.6.6.6.6.6.5.6.6.6.6.6.6.6.6.6.6.6.6.6.6.6.6.6.6.6.6.6.6.6.N. .X ",
"1 [.*X=X>X%X|.~ P >.Q.(.M.w.4.6.6.6.6.6.6.6.6.6.6.6.6.6.6.6.6.6.6.7.6.6.6.6.6.6.6.6.6.6.6.6.6.m.k   ",
"1 d `.{.XX}.R ( Q.c.t.7.4.4.6.6.6.6.6.6.6.6.6.6.6.6.6.6.6.6.6.6.6.6.6.6.6.6.6.6.4.7.6.4.7.5.t.<.=   ",
"$ > % 2 s &.j.P.v.w.7.4.4.6.6.5.6.6.6.6.6.6.6.6.6.6.6.6.6.6.6.6.6.6.6.6.6.6.6.6.6.4.7.6.6.w.H.I X   ",
"X + 7 | E.K.w.6.4.6.6.6.6.6.6.6.6.6.6.6.6.6.6.6.6.6.6.6.6.6.6.6.6.6.6.6.6.6.6.6.6.6.6.6.7.r.E.7 X   ",
"& A h.K.n.w.4.6.7.7.6.4.6.6.7.6.6.6.6.6.6.6.6.6.6.6.6.6.6.6.6.6.6.6.7.6.5.6.6.6.6.6.6.4.6.B.Z       ",
"& =.(.8.7.7.4.6.6.6.6.6.6.6.7.6.6.6.6.6.6.6.6.6.6.6.6.6.6.6.6.6.6.6.7.6.5.6.6.6.4.7.6.7.n.u.= X     ",
"  8 h.n.4.4.7.6.6.6.7.6.4.4.4.6.6.6.6.6.6.6.6.6.6.6.6.6.6.6.6.6.6.6.6.6.6.6.6.6.4.7.6.t.Z.j o       ",
"  X v C.t.7.6.6.6.6.6.6.6.6.6.6.6.6.6.6.6.6.6.6.6.6.6.6.6.6.6.6.6.6.6.6.6.6.6.7.7.7.w.K.C o         ",
". . . U H.7.7.6.6.6.6.6.6.6.6.6.6.6.6.6.6.6.6.6.6.6.6.6.6.6.6.6.6.4.6.6.6.7.6.6.6.w.K.o.*           ",
".     o ) m.w.4.7.6.6.6.5.6.6.6.6.6.6.6.6.6.6.6.6.6.6.6.6.6.6.6.7.7.7.4.4.6.6.7.w.K.#.= X .   O     ",
"      X & | K.w.4.4.6.6.6.6.6.4.6.6.6.6.6.6.6.6.6.6.6.6.6.6.6.6.6.6.4.7.7.4.6.8.K.#.*               ",
"    X     X V z.B.t.7.6.6.6.6.6.6.6.6.6.6.6.6.6.6.6.6.6.6.6.6.6.6.4.7.7.4.w.n.F.' * X   @           ",
"      X     o k s.m.w.4.6.6.4.7.6.6.6.6.6.6.6.6.6.6.6.6.6.6.6.6.4.6.7.7.5.b.f.n # .       O         ",
"+       @     X 4 [ C.v.t.w.7.7.6.6.6.6.6.6.6.6.6.6.6.6.6.6.6.6.7.7.q.b.G.O.9 X   O     ;           ",
"    + O O O   X X X p -./.B.8.6.6.6.6.6.6.6.6.6.6.6.6.6.6.6.6.6.0.B.F.;.z o           + O O         ",
"  .     O O O       . & 0 [ a.m.B.t.t.w.w.7.7.7.7.7.7.w.t.v.n.J.a.X.l *           O                 ",
"          O           X   . 5 z  .;.Z.F.D.m.n.v.v.B.B.C.Z.d. .n 5 &     X                           ",
"                              X o = 9 x B ) } { { ) V v f 3 o X .                                   "
};
