/* XPM */
static char *eatright1709543041[] = {
/* columns rows colors chars-per-pixel */
"50 50 217 2 ",
"   c black",
".  c #010100",
"X  c #151500",
"o  c #333300",
"O  c #555500",
"+  c #717100",
"@  c #8B8B00",
"#  c #979700",
"$  c #9A9A00",
"%  c #959500",
"&  c #878700",
"*  c #6C6C00",
"=  c #4F4F00",
"-  c #2D2D00",
";  c #111100",
":  c #040400",
">  c #262600",
",  c #616100",
"<  c #9E9E00",
"1  c #CCCC00",
"2  c #E8E800",
"3  c #F7F700",
"4  c #FDFD00",
"5  c yellow",
"6  c #F5F500",
"7  c #E5E500",
"8  c #C5C500",
"9  c #939300",
"0  c #1D1D00",
"q  c #0D0D00",
"w  c #4D4D00",
"e  c #A3A300",
"r  c #E3E300",
"t  c #FEFE00",
"y  c #FBFB00",
"u  c #DADA00",
"i  c #949400",
"p  c #3E3E00",
"a  c #070700",
"s  c #080800",
"d  c #515100",
"f  c #BABA00",
"g  c #F6F600",
"h  c #F0F000",
"j  c #A9A900",
"k  c #3F3F00",
"l  c #030300",
"z  c #303000",
"x  c #A7A700",
"c  c #EEEE00",
"v  c #919100",
"b  c #202000",
"n  c #060600",
"m  c #656500",
"M  c #E0E000",
"N  c #CFCF00",
"B  c #4C4C00",
"V  c #F8F800",
"C  c #737300",
"Z  c #181800",
"A  c #F9F900",
"S  c #8A8A00",
"D  c #0B0B00",
"F  c #171700",
"G  c #ADAD00",
"H  c #FCFC00",
"J  c #F4F400",
"K  c #8D8D00",
"L  c #090900",
"P  c #A0A000",
"I  c #DFDF00",
"U  c #909000",
"Y  c #595900",
"T  c #999900",
"R  c #E7E700",
"E  c #7E7E00",
"W  c #020200",
"Q  c #BEBE00",
"!  c #2E2E00",
"~  c #393900",
"^  c #5C5C00",
"/  c #4B4B00",
"(  c #EFEF00",
")  c #EDED00",
"_  c #DDDD00",
"`  c #191900",
"'  c #C8C800",
"]  c #DCDC00",
"[  c #1B1B00",
"{  c #272700",
"}  c #E9E900",
"|  c #AAAA00",
" . c #0E0E00",
".. c #7C7C00",
"X. c #585800",
"o. c #CDCD00",
"O. c #252500",
"+. c #606000",
"@. c #6D6D00",
"#. c #D4D400",
"$. c #767600",
"%. c #757500",
"&. c #777700",
"*. c #D1D100",
"=. c #161600",
"-. c #CECE00",
";. c #6E6E00",
":. c #4E4E00",
">. c #686800",
",. c #636300",
"<. c #141400",
"1. c #C6C600",
"2. c #FAFA00",
"3. c #C1C100",
"4. c #5F5F00",
"5. c #121200",
"6. c #E6E600",
"7. c #BCBC00",
"8. c #101000",
"9. c #535300",
"0. c #B8B800",
"q. c #B4B400",
"w. c #505000",
"e. c #0C0C00",
"r. c #898900",
"t. c #F3F300",
"y. c #AFAF00",
"u. c #0A0A00",
"i. c #929200",
"p. c #424200",
"a. c #050600",
"s. c #000003",
"d. c #080009",
"f. c #070007",
"g. c #050005",
"h. c #020002",
"j. c #F1F100",
"k. c #A5A600",
"l. c #523F13",
"z. c #770572",
"x. c #AE00B1",
"c. c #B400B5",
"v. c #A400A4",
"b. c #8F008F",
"n. c #740074",
"m. c #540054",
"M. c #330033",
"N. c #170017",
"B. c #040004",
"V. c #707000",
"C. c #B7A314",
"Z. c #9E3D61",
"A. c #CA04C6",
"S. c #FB00FF",
"D. c magenta",
"F. c #FC00FC",
"G. c #EE00EE",
"H. c #D400D4",
"J. c #AB00AB",
"K. c #730073",
"L. c #3A003A",
"P. c #0F000F",
"I. c #EBEE00",
"U. c #B0A011",
"Y. c #983B5E",
"T. c #C804C4",
"R. c #F800FB",
"E. c #F100F1",
"W. c #C600C6",
"Q. c #7E007E",
"!. c #310031",
"~. c #E9ED00",
"^. c #B09E13",
"/. c #9A3862",
"(. c #C903C6",
"). c #F900FC",
"_. c #E900E9",
"`. c #A000A0",
"'. c #380038",
"]. c #010001",
"[. c #E7EB00",
"{. c #AE9B14",
"}. c #9B3765",
"|. c #CC02C9",
" X c #F900FD",
".X c #7B007B",
"XX c #0A000A",
"oX c #E7EA00",
"OX c #AC9715",
"+X c #9A3367",
"@X c #CD02CB",
"#X c #FA00FD",
"$X c #FD00FD",
"%X c #7C007C",
"&X c #E5E800",
"*X c #AC9517",
"=X c #9C316B",
"-X c #CE01CD",
";X c #FB00FE",
":X c #B400B4",
">X c #090009",
",X c #E3E600",
"<X c #AA9218",
"1X c #9E306E",
"2X c #D001CF",
"3X c #E700EA",
"4X c #D500D5",
"5X c #E3E500",
"6X c #A78E19",
"7X c #582D2C",
"8X c #E1E400",
"9X c #8B8C00",
"0X c #2B2B00",
"qX c #E2E200",
"wX c #818100",
"eX c #868600",
"rX c white",
/* pixels */
"                                      . X o O + @ # $ % & * = - ;                                   ",
"                                : > , < 1 2 3 4 5 5 5 5 5 4 6 7 8 9 O 0 .                           ",
"                            q w e r t 5 5 5 5 5 5 5 5 5 5 5 5 5 5 5 y u i p a                       ",
"                        s d f g 5 5 5 5 5 5 5 5 5 5 5 5 5 5 5 5 5 5 5 5 5 h j k l                   ",
"                      z x g 5 5 5 5 5 5 5 5 5 5 5 5 5 5 5 5 5 5 5 5 5 5 5 5 5 c v b                 ",
"                  n m M 5 5 5 5 5 5 5 5 5 5 5 5 5 5 5 5 5 5 5 5 5 5 5 5 5 5 5 5 5 N B .             ",
"                ; v V 5 5 5 5 5 5 5 5 5 5 5 5 5 5 5 5 5 5 5 5 5 5 5 5 5 5 5 5 5 5 5 c C a           ",
"              Z x 5 5 5 5 5 5 5 5 5 5 5 5 5 5 5 5 5 5 5 5 5 5 5 5 5 5 5 5 5 5 5 5 5 5 A S D         ",
"            F G 5 5 5 5 5 5 5 5 5 5 5 5 5 5 5 5 5 5 5 5 5 5 H J J H 5 5 5 5 5 5 5 5 5 5 4 K L       ",
"          q P 5 5 5 5 5 5 5 5 5 5 5 5 5 5 5 5 5 5 5 5 5 I U O p k Y T R 5 5 5 5 5 5 5 5 5 y E l     ",
"        W E 4 5 5 5 5 5 5 5 5 5 5 5 5 5 5 5 5 5 5 5 5 Q !           . ~ 1 5 5 5 5 5 5 5 5 5 J ^     ",
"        / ( 5 5 5 5 5 5 5 5 5 5 5 5 5 5 5 5 5 5 5 5 ) ~                 B g 5 5 5 5 5 5 5 5 5 _ !   ",
"      ` ' 5 5 5 5 5 5 5 5 5 5 5 5 5 5 5 5 5 5 5 5 5 ] [                 { } 5 5 5 5 5 5 5 5 5 5 |  .",
"      ..5 5 5 5 5 5 5 5 5 5 5 5 5 5 5 5 5 5 5 5 5 5 g X.                * y 5 5 5 5 5 5 5 5 5 5 o.! ",
"    O._ 5 5 5 5 5 5 5 5 5 5 5 5 5 5 5 5 5 5 5 5 5 5 5 M +.;         X @.} 5 5 5 5 5 5 5 5 5 #.$.b W ",
"    ..5 5 5 5 5 5 5 5 5 5 5 5 5 5 5 5 5 5 5 5 5 5 5 5 5 A ' i %.&.T N y 5 5 5 5 5 5 5 t *.C 0       ",
"  =.N 5 5 5 5 5 5 5 5 5 5 5 5 5 5 5 5 5 5 5 5 5 5 5 5 5 5 5 5 5 5 5 5 5 5 5 5 5 5 4 -.;.[           ",
"  :.V 5 5 5 5 5 5 5 5 5 5 5 5 5 5 5 5 5 5 5 5 5 5 5 5 5 5 5 5 5 5 5 5 5 5 5 5 H ' >.F               ",
"  U 5 5 5 5 5 5 5 5 5 5 5 5 5 5 5 5 5 5 5 5 5 5 5 5 5 5 5 5 5 5 5 5 5 5 5 y 8 ,.<.                  ",
"; 1.5 5 5 5 5 5 5 5 5 5 5 5 5 5 5 5 5 5 5 5 5 5 5 5 5 5 5 5 5 5 5 5 5 2.3.4.5.                      ",
"z 6.5 5 5 5 5 5 5 5 5 5 5 5 5 5 5 5 5 5 5 5 5 5 5 5 5 5 5 5 5 5 5 V 7.Y 8.                          ",
"9.g 5 5 5 5 5 5 5 5 5 5 5 5 5 5 5 5 5 5 5 5 5 5 5 5 5 5 5 5 5 g 0.9.q                               ",
"+ 4 5 5 5 5 5 5 5 5 5 5 5 5 5 5 5 5 5 5 5 5 5 5 5 5 5 5 5 6 q.w.e.                                  ",
"r.5 5 5 5 5 5 5 5 5 5 5 5 5 5 5 5 5 5 5 5 5 5 5 5 5 5 t.y./ u.                                      ",
"i.5 5 5 5 5 5 5 5 5 5 5 5 5 5 5 5 5 5 5 5 5 5 5 5 y y.p.s                                           ",
"i.5 5 5 5 5 5 5 5 5 5 5 5 5 5 5 5 5 5 5 5 5 5 5 5 y y.k a.s.d.f.g.h.                                ",
"r.5 5 5 5 5 5 5 5 5 5 5 5 5 5 5 5 5 5 5 5 5 5 5 5 5 5 j.k.l.z.x.c.v.b.n.m.M.N.B.                    ",
"V.4 5 5 5 5 5 5 5 5 5 5 5 5 5 5 5 5 5 5 5 5 5 5 5 5 5 5 5 ( C.Z.A.S.D.D.F.G.H.J.K.L.P.              ",
"9.g 5 5 5 5 5 5 5 5 5 5 5 5 5 5 5 5 5 5 5 5 5 5 5 5 5 5 5 5 5 I.U.Y.T.R.D.D.D.D.D.E.W.Q.!.B.        ",
"z 6.5 5 5 5 5 5 5 5 5 5 5 5 5 5 5 5 5 5 5 5 5 5 5 5 5 5 5 5 5 5 5 ~.^./.(.).D.D.D.D.D.D._.`.'.].    ",
"; 1.5 5 5 5 5 5 5 5 5 5 5 5 5 5 5 5 5 5 5 5 5 5 5 5 5 5 5 5 5 5 5 5 5 [.{.}.|. XD.D.D.D.D.D._..XXX  ",
"  U 5 5 5 5 5 5 5 5 5 5 5 5 5 5 5 5 5 5 5 5 5 5 5 5 5 5 5 5 5 5 5 5 5 5 5 oXOX+X@X#XD.D.D.D.D.$X%X].",
"  :.V 5 5 5 5 5 5 5 5 5 5 5 5 5 5 5 5 5 5 5 5 5 5 5 5 5 5 5 5 5 5 5 5 5 5 5 5 &X*X=X-X;XD.D.D.D.:X>X",
"  =.N 5 5 5 5 5 5 5 5 5 5 5 5 5 5 5 5 5 5 5 5 5 5 5 5 5 5 5 5 5 5 5 5 5 5 5 5 5 5 ,X<X1X2X3X4X`.M.  ",
"    ..5 5 5 5 5 5 5 5 5 5 5 5 5 5 5 5 5 5 5 5 5 5 5 5 5 5 5 5 5 5 5 5 5 5 5 5 5 5 5 5 5X6X7XN.s.    ",
"    O._ 5 5 5 5 5 5 5 5 5 5 5 5 5 5 5 5 5 5 5 5 5 5 5 5 5 5 5 5 5 5 5 5 5 5 5 5 5 5 5 5 5 8X9X0X    ",
"      ..5 5 5 5 5 5 5 5 5 5 5 5 5 5 5 5 5 5 5 5 5 5 5 5 5 5 5 5 5 5 5 5 5 5 5 5 5 5 5 5 5 5 5 qXwX .",
"      ` ' 5 5 5 5 5 5 5 5 5 5 5 5 5 5 5 5 5 5 5 5 5 5 5 5 5 5 5 5 5 5 5 5 5 5 5 5 5 5 5 5 5 5 5 | D ",
"        / ( 5 5 5 5 5 5 5 5 5 5 5 5 5 5 5 5 5 5 5 5 5 5 5 5 5 5 5 5 5 5 5 5 5 5 5 5 5 5 5 5 5 _ !   ",
"        W E 4 5 5 5 5 5 5 5 5 5 5 5 5 5 5 5 5 5 5 5 5 5 5 5 5 5 5 5 5 5 5 5 5 5 5 5 5 5 5 5 t.^     ",
"          q P 5 5 5 5 5 5 5 5 5 5 5 5 5 5 5 5 5 5 5 5 5 5 5 5 5 5 5 5 5 5 5 5 5 5 5 5 5 5 y E l     ",
"            F G 5 5 5 5 5 5 5 5 5 5 5 5 5 5 5 5 5 5 5 5 5 5 5 5 5 5 5 5 5 5 5 5 5 5 5 5 4 K L       ",
"              Z x 5 5 5 5 5 5 5 5 5 5 5 5 5 5 5 5 5 5 5 5 5 5 5 5 5 5 5 5 5 5 5 5 5 5 A @ D         ",
"                ; v V 5 5 5 5 5 5 5 5 5 5 5 5 5 5 5 5 5 5 5 5 5 5 5 5 5 5 5 5 5 5 5 c C a           ",
"                  n m M 5 5 5 5 5 5 5 5 5 5 5 5 5 5 5 5 5 5 5 5 5 5 5 5 5 5 5 5 5 N B .             ",
"                      z x g 5 5 5 5 5 5 5 5 5 5 5 5 5 5 5 5 5 5 5 5 5 5 5 5 5 c v b                 ",
"                        s d f g 5 5 5 5 5 5 5 5 5 5 5 5 5 5 5 5 5 5 5 5 5 h j k l                   ",
"                            q w e r t 5 5 5 5 5 5 5 5 5 5 5 5 5 5 5 y u i p a                       ",
"                                : > , < 1 2 3 4 5 5 5 5 5 4 6 7 1.9 O 0 .                           ",
"                                      . X o O + @ # $ % eX* :.- ;                                   "
};
