/* XPM */
static char *eatup1709543041[] = {
/* columns rows colors chars-per-pixel */
"50 50 229 2 ",
"   c #030202",
".  c #0A0401",
"X  c #050901",
"o  c #0C0B00",
"O  c #05030A",
"+  c #0B020B",
"@  c #0B0A0B",
"#  c #050908",
"$  c #120402",
"%  c #120D01",
"&  c #190C00",
"*  c #170409",
"=  c #0E1100",
"-  c #141200",
";  c #1A1600",
":  c #151800",
">  c #1B1A00",
",  c #0B0210",
"<  c #1B001A",
"1  c #170017",
"2  c #101211",
"3  c #221C00",
"4  c #281900",
"5  c #22001A",
"6  c #350104",
"7  c #192000",
"8  c #242400",
"9  c #2A2500",
"0  c #262900",
"q  c #2B2B00",
"w  c #372C00",
"e  c #333300",
"r  c #3C3B00",
"t  c #383600",
"y  c #2A3200",
"u  c #1D0020",
"i  c #2B0025",
"p  c #240026",
"a  c #370029",
"s  c #380038",
"d  c #2C0036",
"f  c #413A01",
"g  c #512309",
"h  c #6A2A07",
"j  c #490337",
"k  c #6D363C",
"l  c #424500",
"z  c #4A4A00",
"x  c #494603",
"c  c #4F5201",
"v  c #545201",
"b  c #5B5C00",
"n  c #575605",
"m  c #665000",
"M  c #5C6200",
"N  c #5F6412",
"B  c #626200",
"V  c #63620B",
"C  c #696703",
"Z  c #716F00",
"A  c #7D7D00",
"S  c #787804",
"D  c #666512",
"F  c #716C10",
"G  c #757414",
"H  c #7A7917",
"J  c #7D7923",
"K  c #3B0044",
"L  c #540055",
"P  c #4C0042",
"I  c #60125E",
"U  c #6E045E",
"Y  c #753159",
"T  c #670561",
"R  c #7D1C67",
"E  c #760677",
"W  c #7D7642",
"Q  c #9E302F",
"!  c #853E38",
"~  c #AC373F",
"^  c #8E4F2E",
"/  c #984422",
"(  c #8F7A29",
")  c #BE7D3B",
"_  c #A51E56",
"`  c #9F2943",
"'  c #B6285E",
"]  c #AB334C",
"[  c #840878",
"{  c #842E77",
"}  c #AE2761",
"|  c #C0327A",
" . c #A74D69",
".. c #D67B55",
"X. c #D1774D",
"o. c #7D8200",
"O. c #7F8525",
"+. c #929400",
"@. c #9A9B00",
"#. c #989700",
"$. c #868B19",
"%. c #929413",
"&. c #8F931B",
"*. c #A2A200",
"=. c #ABAC02",
"-. c #B2B005",
";. c #8D8D2E",
":. c #898924",
">. c #979624",
",. c #9D9C33",
"<. c #949130",
"1. c #8E8F2C",
"2. c #AB9E30",
"3. c #9DA538",
"4. c #A3A22B",
"5. c #A5A837",
"6. c #B5B735",
"7. c #B1AA2E",
"8. c #C88A3F",
"9. c #BDC03D",
"0. c #F4F503",
"q. c #FBF503",
"w. c #F6FB03",
"e. c #FEFE03",
"r. c #F5F509",
"t. c #FDF50C",
"y. c #F6FA0C",
"u. c #FDFD0B",
"i. c #F4F415",
"p. c #F4FA14",
"a. c #FCFC13",
"s. c #F3F41C",
"d. c #FCF51C",
"f. c #F4FA1C",
"g. c #FCFC1B",
"h. c #F8F712",
"j. c #F5ED16",
"k. c #C4C536",
"l. c #D4D739",
"z. c #DFE136",
"x. c #EFEE24",
"c. c #EEF429",
"v. c #F3F524",
"b. c #FBF523",
"n. c #F6FB24",
"m. c #FBFC23",
"M. c #F3F52C",
"N. c #FDF42C",
"B. c #F6FB2D",
"V. c #FBFC2C",
"C. c #E7E93B",
"Z. c #F9E83D",
"A. c #EEF436",
"S. c #F4F635",
"D. c #FEF532",
"F. c #F6F935",
"G. c #FAFB33",
"H. c #F3F43D",
"J. c #F5FB3C",
"K. c #FCFD3B",
"L. c #F9F73A",
"P. c #FFE428",
"I. c #9E9A5B",
"U. c #B5B644",
"Y. c #A8A055",
"T. c #C5934C",
"R. c #F7BD59",
"E. c #C3B972",
"W. c #FFBF71",
"Q. c #BDC249",
"!. c #C7C849",
"~. c #CFD445",
"^. c #CED150",
"/. c #D9DA57",
"(. c #D2D24F",
"). c #FFDD59",
"_. c #FCD758",
"`. c #EAD15B",
"'. c #DFE150",
"]. c #E7E848",
"[. c #FFEC43",
"{. c #FFEA4B",
"}. c #EFF24B",
"|. c #F4F543",
" X c #FBFC42",
".X c #F3F44B",
"XX c #F4F94B",
"oX c #FCFD4C",
"OX c #F8F743",
"+X c #ECED54",
"@X c #E5E55B",
"#X c #E9ED5A",
"$X c #E7E855",
"%X c #F8E956",
"&X c #EEF453",
"*X c #EEF35D",
"=X c #EEF85B",
"-X c #F4F553",
";X c #FDFD51",
":X c #F1F35B",
">X c #F7FA59",
",X c #D7D36B",
"<X c #FFC567",
"1X c #FFDC60",
"2X c #EEED64",
"3X c #F2EF7E",
"4X c #FCF575",
"5X c #F7EC68",
"6X c #8F1B98",
"7X c #B73781",
"8X c #A52F83",
"9X c #B41DAD",
"0X c #A423A1",
"qX c #B629A9",
"wX c #B837A5",
"eX c #AA38A7",
"rX c #CA2B8C",
"tX c #CA3194",
"yX c #DE1FBA",
"uX c #E019BC",
"iX c #D725AA",
"pX c #CB2AB6",
"aX c #D42BAF",
"sX c #D61BC9",
"dX c #D80EC6",
"fX c #E51DCD",
"gX c #CA22C5",
"hX c #D82ECD",
"jX c #E022CC",
/* pixels */
"  +     #   #     X   o 3 ; . * a a s p ,   .           + ,         o + f 4 . o   X             . . ",
"                . X : 0 I.W & 5 j { I s 1 . + +         + +         o 9 E.Y.e o X   @         .   . ",
"      O O #     . - b ,X3X,Xw 6 R wXeXT a 5 + , O     .           X - J 3X4X^.M : X       O     .   ",
"    O O O   o X : J $X.X-X4X( 6 8XwXgX0XL i < O O O           X   o 9 !.%X|.-X@XG : o @   O O     O ",
"        , +   8 :.#XL.G.M.Z.`.h 7XpXsXhX[ P 5   O       . O   X   o S -Xv.m.f.J.=XO.: . o   # #     ",
"      # # . % :.*XK.m.i.m.N.{.) } iXfXdXqXT i , +       O O X   o q k.J.g.r.a.f.A.&X:.4 o     X   O ",
"      . . % G :XG.f.h.t.q.d.[.R.~ rXuXdXjX[ s + .   . O O +     * F -Xm.a.e.e.p.f.J.=XB - . X X     ",
"        % c $XG.f.w.u.u.t.t.D._.X.' iXfXsX0Xs < + .   O O     X 4 !.H.m.r.a.0.e.u.p.F.#Xx -     @   ",
"      % 9 !.H.g.a.y.e.e.e.t.b.{.<XQ rXyXsX9XL p , .     O   . % F >XD.j.a.q.u.e.u.a.d.oX^.8 %       ",
"    o % >.&XM.r.u.w.e.w.e.q.d.Z._.X.' iXjXgXE d < . #     #   9 6.OXM.g.g.g.y.0.e.e.a.V.$X;.;   .   ",
"  . % r @X Xf.u.u.w.e.e.e.e.a.N.{.<X] rXhXgX6Xs < + O #   o . V -Xm.f.u.g.g.a.e.e.e.u.d.OX@Xx $ .   ",
"  o ; ,.-XN.h.u.e.w.e.w.e.e.u.a.N.)...} iXgX0XL u O     X X 0 6.J.g.a.f.V.x.V.g.u.e.u.d.V.{.,.> X   ",
". o l 2XH.m.a.e.e.e.e.w.e.e.e.y.g.[.W.] rXaXqXT p         = M =Xc.y.p.F.-X].}.M.n.p.u.a.g.F.@Xl o X ",
"  - $.;XN.a.u.q.w.u.u.w.e.e.e.0.u.N.)..._ aXwXU i + O   . 0 6.XXn.i.K.z.Z r B k. Xf.u.t.p.b.oX&.=   ",
". y ~.M.g.w.e.e.e.u.a.y.u.e.e.e.u.d.Z.W.] | tXU i + . . & V &XA.n.B.z.S 3 % % r ].K.g.a.u.a.M.~.q X ",
"= n &XB.u.e.e.e.e.q.u.u.e.w.e.e.e.t.N._.T.` 7XR i + * $ 4 7.XXB.n.L.!.w . o . : %.|.m.a.y.a.B.-Xn = ",
"= ;.XXn.u.e.e.e.e.e.e.e.e.e.e.e.u.y.m.[.<X/  .Y 5 + + $ B ].D.g.s.OX,.o o   . o B XXn.y.y.a.g..X;.: ",
"0 U.OXg.u.e.e.e.e.e.e.e.e.e.e.e.e.e.a.D.).8.! Y 5 + . 4 7.L.m.t.m..XH o o   . o z ].f.u.u.a.g.H.U.y ",
"l /.F.a.u.e.e.e.e.e.e.e.e.e.e.e.e.e.e.m.[.1X^ k 5 $ $ v %XN.g.y.m.|.G % *     % c +XB.p.y.u.a.F./.l ",
"b *XB.a.u.e.e.e.e.e.e.e.e.u.e.e.u.e.e.a.P.5XT.g $ $ ; 4.oXs.u.a.m.OX:.o   @ . o M }.V.u.u.u.g.G.&Xb ",
"S }.b.a.e.e.e.e.e.e.e.e.e.e.e.e.e.e.e.u.d.[._.h & ; v #XN.a.e.u.a.F.!.0 o . o : &.H.f.w.e.u.g.M..XA ",
"+.H.m.u.e.e.e.e.e.e.e.e.e.e.e.e.e.e.e.e.t.b.[.2.4 3 7. Xf.t.u.y.y.V.}.C ; o o e l.K.p.e.e.u.a.V.H.#.",
"*.F.g.e.e.e.e.e.e.u.e.e.e.e.e.e.e.u.e.e.e.h.N.Z.v v C.v.a.w.u.u.u.g.M.l.B r z 9.A.f.u.e.e.e.a.g.L.*.",
"*.G.a.u.e.e.e.e.u.e.e.e.e.e.e.e.e.q.e.e.e.e.a.b.-.-.G.g.t.u.e.e.e.w.m.F.C.l.].OXV.r.u.e.w.e.t.m.D.*.",
"@.K.g.e.q.e.e.e.e.u.e.e.e.e.e.e.e.e.e.u.w.e.u.p.v.v.p.y.e.e.u.e.e.u.u.p.n.B.G.m.r.e.u.e.e.e.u.g. X@.",
"+.K.g.u.u.e.e.e.e.e.e.e.e.e.e.e.e.e.e.e.e.e.e.u.p.y.y.e.e.u.u.u.u.e.e.e.y.a.p.a.e.e.u.q.q.e.u.d. X+.",
"A |.b.a.e.e.e.e.e.e.e.e.e.e.e.e.e.e.e.w.e.e.u.y.y.u.w.e.e.e.e.u.u.e.e.e.e.u.u.u.e.e.u.t.q.e.t.m.XXo.",
"B +XM.a.u.q.e.e.e.e.e.e.e.e.e.e.e.e.e.e.e.e.u.u.e.e.e.e.e.e.e.u.u.u.e.e.e.u.u.u.e.e.u.a.e.u.a.V.+XM ",
"l 2XS.g.u.q.e.e.e.e.e.e.e.e.e.e.e.e.e.e.e.u.u.u.e.e.e.e.e.e.e.q.t.a.e.e.e.e.e.u.u.u.a.a.u.u.h.G.'.l ",
"0 Q.|.g.a.q.e.e.e.e.e.e.e.e.e.e.e.e.e.e.u.e.q.u.e.e.e.e.e.e.e.e.a.u.u.e.e.e.e.e.u.u.u.a.u.u.a. XQ.y ",
": :.XXn.a.e.e.e.e.e.e.e.e.e.e.e.e.e.e.u.u.u.e.e.e.e.e.y.e.e.e.e.e.e.e.e.e.e.e.e.e.e.e.e.e.a.m.-X;.7 ",
"= N >XB.g.t.e.w.e.e.e.e.e.e.e.e.e.e.e.u.u.q.e.e.e.e.u.e.e.e.e.e.e.e.e.e.e.e.e.e.e.e.e.e.e.p.G.*XN = ",
"o t ~.K.h.t.q.e.e.e.e.u.e.e.e.e.e.e.e.e.e.e.e.e.e.e.e.e.e.e.e.e.e.e.e.e.e.e.e.e.q.e.e.e.e.a.S.(.e X ",
". ; 4.H.V.a.w.u.e.e.u.e.e.e.e.e.e.e.e.e.u.e.e.e.u.e.e.e.e.e.e.e.e.e.e.e.e.w.e.e.u.u.q.q.y.m.-X,.X X ",
"  X v +XM.g.t.u.e.e.e.u.u.u.u.u.e.e.e.e.e.e.e.e.e.e.e.e.e.e.e.e.u.u.u.e.w.e.e.e.e.u.e.q.g.C.2Xv X   ",
"  . 8 6.H.g.a.q.q.e.e.q.u.u.u.e.u.e.q.e.e.e.e.e.e.e.e.u.e.e.u.u.u.u.u.y.e.e.e.e.e.q.e.u.V..XU.> -   ",
"X   o z =XM.p.u.u.q.e.e.e.e.w.e.e.e.e.e.e.e.e.e.e.e.e.e.e.e.e.u.u.u.e.e.u.e.e.e.e.e.u.a.N.+Xn o .   ",
"  X   : 3.;XB.y.u.u.e.e.e.w.w.e.e.e.e.e.e.e.e.e.e.e.e.e.e.e.e.e.u.e.e.e.u.u.u.u.e.q.u.b.;X4.; o     ",
"  X   = t Q. Xn.a.u.e.e.e.e.w.e.e.e.e.e.e.e.e.e.e.e.e.e.e.e.e.e.e.e.e.e.e.u.a.u.u.u.m.H.^.f . . o   ",
"        o D #XJ.f.t.e.e.e.e.u.e.e.e.e.e.e.e.e.e.e.e.e.e.e.e.e.e.e.e.e.e.u.u.u.a.a.g. X$XV - .       ",
"  @     . > O.*XF.m.w.e.u.u.t.u.e.e.e.e.u.e.q.e.q.e.w.e.e.e.e.e.e.e.q.u.q.a.t.y.g.F.%X<.%       O   ",
"+   @     = 7 5.=XM.f.p.u.u.a.h.e.e.u.e.e.e.e.e.e.e.e.e.e.e.e.e.e.e.e.u.u.u.h.m.M.-X5.; . @   2     ",
"+   .       = 0 5.=XJ.s.u.e.e.u.e.w.e.e.e.e.e.e.e.e.e.e.e.e.e.e.q.q.u.w.a.g.j. X-X5.8 %           O ",
".     . .   .   > 3.*X Xn.0.a.q.e.w.e.e.e.e.e.w.e.e.e.e.e.w.e.e.e.e.q.u.g.s. X#X>.9 - .             ",
"    .   o .   - o 7 O./.oXn.p.g.u.w.u.w.w.w.e.e.e.e.e.e.e.e.e.w.e.w.a.m.n.oX2X$.> o X     , O       ",
"      +     *   X X = l 9.>XS.n.d.p.a.a.u.e.e.e.e.e.e.e.e.e.y.u.p.p.B.H.-X9.l o o       O O O       ",
"    O O O O         X - > G /.-XL.V.b.i.h.a.u.u.e.e.u.u.h.g.g.m.c.J.&X^.G 0 % . X .     O         O ",
"        , + +   # X   . . o q ( k.].;XOXK.V.n.f.g.g.m.m.G.L.OXXX].k.H t % .       X     O O     O   ",
"          O               . o o 8 v ;.U./.:X.X|.J.J. X.X+X/.U.;.c y = X       O               O     ",
"                            .     o ; 0 l B A +.#.#.+.o.B l 9 : = X     O O O O         O           "
};
