/* XPM */
static char *b6f3b44b36344c6589f1555e4fcec645ln7tg1zCX6ovwLaM[] = {
/* columns rows colors chars-per-pixel */
"50 50 212 2 ",
"   c #010101",
".  c #01000B",
"X  c #08090D",
"o  c #000013",
"O  c #00001B",
"+  c #000023",
"@  c #00002B",
"#  c #09072E",
"$  c #000032",
"%  c #01013B",
"&  c #11103C",
"*  c #030244",
"=  c #03024C",
"-  c #08064F",
";  c #030A49",
":  c #0C0B4A",
">  c #0C0945",
",  c #120E4C",
"<  c #030353",
"1  c #090654",
"2  c #05045C",
"3  c #09075C",
"4  c #0D0C5B",
"5  c #040851",
"6  c #191557",
"7  c #221D5F",
"8  c #050464",
"9  c #090464",
"0  c #04026C",
"q  c #09036B",
"w  c #0A0A6C",
"e  c #0C0962",
"r  c #191769",
"t  c #030274",
"y  c #080473",
"u  c #0A0A74",
"i  c #03017B",
"p  c #09057C",
"a  c #0C0B7F",
"s  c #07087C",
"d  c #131473",
"f  c #1A1B78",
"g  c #231F6E",
"h  c #1D217C",
"j  c #292668",
"k  c #29297B",
"l  c #020183",
"z  c #070887",
"x  c #02018C",
"c  c #09048D",
"v  c #0A098C",
"b  c #0C0A84",
"n  c #130F87",
"m  c #181280",
"M  c #010193",
"N  c #0A0594",
"B  c #0D0B94",
"V  c #01019B",
"C  c #0A099D",
"Z  c #08039D",
"A  c #110F95",
"S  c #13129A",
"D  c #1E1A9A",
"F  c #161692",
"G  c #282181",
"H  c #2B2D8C",
"J  c #232683",
"K  c #322E8F",
"L  c #363489",
"P  c #0201A4",
"I  c #0A05A2",
"U  c #0101AB",
"Y  c #0E0AAB",
"T  c #090CA9",
"R  c #110BA6",
"E  c #1211AD",
"W  c #0102B4",
"Q  c #0101BB",
"!  c #0905B9",
"~  c #0706B2",
"^  c #1311B0",
"/  c #2121A7",
"(  c #2B29A8",
")  c #3F3DA0",
"_  c #302FB9",
"`  c #4A478E",
"'  c #454493",
"]  c #4A4995",
"[  c #484298",
"{  c #46489D",
"}  c #6D6A9F",
"|  c #4746A4",
" . c #6D6BAA",
".. c #696BBE",
"X. c #7476BB",
"o. c #7B7AB4",
"O. c #0202C4",
"+. c #0903C4",
"@. c #0202CC",
"#. c #0C09CD",
"$. c #0C0AC3",
"%. c #1616CD",
"&. c #0304D4",
"*. c #0B07D5",
"=. c #0305DB",
"-. c #0805DB",
";. c #0409DB",
":. c #0A0BDB",
">. c #080AD4",
",. c #1009D1",
"<. c #100DD8",
"1. c #0F10DA",
"2. c #1517DA",
"3. c #2925C9",
"4. c #332FC4",
"5. c #352FCF",
"6. c #3533C6",
"7. c #2526DD",
"8. c #2B2EDB",
"9. c #3735D7",
"0. c #0405E2",
"q. c #0B06E3",
"w. c #070CE2",
"e. c #0B0BE3",
"r. c #0B0BEA",
"t. c #0605E9",
"y. c #1814E7",
"u. c #1919E2",
"i. c #1617E1",
"p. c #211FE4",
"a. c #241FF7",
"s. c #2B2BE5",
"d. c #2E2EEB",
"f. c #2326E3",
"g. c #2C30E9",
"h. c #383CE4",
"j. c #3638E7",
"k. c #2F2BF1",
"l. c #3938F8",
"z. c #433DE7",
"x. c #3E40EA",
"c. c #595AC7",
"v. c #6A68C6",
"b. c #7F7CC9",
"n. c #7B7CD6",
"m. c #4B4DE5",
"M. c #4A46EC",
"N. c #494EEB",
"B. c #514BED",
"V. c #4F53EA",
"C. c #5855E7",
"Z. c #4C4CF3",
"A. c #4948FC",
"S. c #5758F1",
"D. c #5352FD",
"F. c #5D5BF9",
"G. c #5A55F0",
"H. c #625FF6",
"J. c #5F64F6",
"K. c #6465F7",
"L. c #6263FD",
"P. c #6C6DFE",
"I. c #6A6BF6",
"U. c #706EF5",
"Y. c #6E70F7",
"T. c #6F72FC",
"R. c #7372F3",
"E. c #7272FA",
"W. c #7272FF",
"Q. c #757AFF",
"!. c #94949C",
"~. c #9295AC",
"^. c #9192A6",
"/. c #8E92B5",
"(. c #9598BA",
"). c #A1A1AB",
"_. c #ABB0AC",
"`. c #B0B1A9",
"'. c #8A8DC2",
"]. c #8D90C3",
"[. c #9297CF",
"{. c #9998DA",
"}. c #A7ACC2",
"|. c #AFB4C7",
" X c #AAA7DC",
".X c #B8BAD4",
"XX c #888AEF",
"oX c #9091E1",
"OX c #A5A5FA",
"+X c #BEBEFF",
"@X c #B9BBF4",
"#X c #A8AAE7",
"$X c #C0BEFF",
"%X c #C4C3C6",
"&X c #D0CFCB",
"*X c #C8CEDC",
"=X c #D6D5D9",
"-X c #D7D5D6",
";X c #CACAE5",
":X c #CACAFF",
">X c #C7C4F9",
",X c #CED0FF",
"<X c #D5D1FF",
"1X c #DDDFF6",
"2X c #E7E7E9",
"3X c #E2E6E7",
"4X c #E3E3FF",
"5X c #E8E5FF",
"6X c #ECEFFF",
"7X c #E5E6F8",
"8X c #F0F0FF",
"9X c #F7FBFF",
/* pixels */
". .     . .         . . .                           . . . . .               .               .       ",
"                    . . .                             . . .               . . .                     ",
"                      .                         . .                       . . . .                   ",
"      .                                     . . . .                                                 ",
"        .                       . .         . . .                                   . . . .         ",
"      . . .                     . .                                                 . . . .         ",
"    . . .                                                   . .                                     ",
". . . .                                                     . . .   . . .                           ",
". .                     . .                   .                                                     ",
".                       . .         o o + @ @ $ @ @ @ + + O o . .                                   ",
".                               . o $ = 0 B R Y Y I Z N i 2 * @ .         . . .                     ",
".       . .         . .     . O + % H / 3.+.*.&.-.&.@.+.~ Z z w % + o . .   . . . .                 ",
"    . . . .         . .   . @ < ( _ 6.9.s.<.=.=.0.=.@.O.Q W U P N t = + .                     .     ",
"    . . .         . . o O $ d ( 4.Z.D.A.l.:.w.0.=.=.@.O.O.O.O.O.Q P s < @ . .                 .     ",
"                    . O < n 4.G.m.K.F.D.s.2.e.w.=.=.&.O.O.Q Q Q W U Z v 0 * + .         .           ",
"                  . O * D 5.M.H.E.U.P.Z.s.1.e.=.;.&.&.@.O.Q Q Q W U U P x 0 * O .       . .         ",
"    .             + < ( 5.B.G.U.R.E.S.j.u.=.w.e.;.&.&.&.O.Q Q W W U U P V N 0 % O .                 ",
"    . .         . $ v 3.z.F.E.R.R.H.Z.d.:.r.r.0.w.&.:.&.@.O.Q ! W U ~ P P V l 9 + . .               ",
"    .         . o % D 9.L.P.Y.Y.W.M.k.a.r.r.t.t.=.&.&.*.O.@.O.Q W ~ P U P P N y % o .               ",
"    .         . $ f 6.m.K.T.K.P.Z.d.y.q.r.q.*.#.#.$.! Q O.O.@.O.U T V M x x l p - + .       . .     ",
"    .         o = F 4.V.J.Q.L.h.g.i.-.r.e.#.^ S A B B C W O.O.W I l s y u w t q e % o       .       ",
"              + a 3.9.N.m.N.x.s.>.e.e.-.#.Y +X4X:X$XOXc.I W Q ~ b <X5X,X@X#X{.2 q = O         .     ",
"          . . % N %.7.j.h.8.2.1.;.&.0.>.E OX6X9X1X;X.X[.n P W V <X5X8X1X*X|.(.'.q 8 @ .             ",
"          . O = I ,.p.f.%.7.u.=.;.;.w.O.B ,X5X3X. .   O n.x U N :X7X2X    .   /.8 0 $ o .           ",
"          . @ w P O.@.@.O.O.&.=.&.&.&.$.S +X;X=X. . X o % a T x >X=X-X  . .   O q y - + .           ",
"    . .   . $ u P O.@.@.O.O.@.&.&.&.&.! A OX.X%X. . . O * s V B  X%X&X  . . . + 9 y 1 @ o .         ",
"  . . .   . $ u Z Q O.O.Q Q O.O.&.&.@.! A oX}._.  . . + < c P l {.).`.    . o @ 9 q 3 $ o .         ",
". . .     o % y Z W Q Q Q Q Q O.O.O.@.Q M XX].~.~.O + j p Z T x r (.^.!.. o @ 6 8 q 3 $ o           ",
"        . o % y Z U W W Q Q W Q O.O.O.Q ~ C c...X.X.v.i Z U P V l y b.o.}  .e 0 t 0 1 @ .           ",
"        . o % y M U U W W Q W Q Q Q O.O.W U R z t p N Z P U P P V N t 8 e 9 t i i 0 < + .           ",
"          o % y M P U W Q Q Q Q ! Q Q Q Q U U V P P V P U P U P V M x l i i l c i 8 ; + .           ",
"          o % y M P U W W W Q W U W Q Q Q U U U U U U P P P P P V V M M l l x l i 8 ; + .   . .     ",
". . .     o $ 8 x P P P U U U U U U Q Q U U U U U U P V P P V V V M x x l l l i t 0 - + .   . .     ",
". .       o @ 8 x P V P P P P P P P W W U U U U U P V V V V V V V x l l i i i t t 0 1 @ .           ",
"          o @ 3 l V V V P P P V V V P P U U U U U P V V V V V V V x l i i i i t t 8 < @ .           ",
"          o @ 3 l V V V V V V V V V V V P P P P P P V V M M V V M x i t i i i t 0 8 < @ .           ",
"          . @ 3 l M M M M V V V V V V Z V V V V V V V M M M x x l l l i t t t 0 0 8 - @ .           ",
"          . @ 1 i M x x x x M V V V V V V M M M x x M M x x l l i i l i t t w w 8 2 > + .   . .     ",
"          . + 1 i x l l l x x x M M V V M M x x x x x x l l l i i i i i t u f h d 4 > + .   . .     ",
". . .     . O : t l l l l l x l l i i i l l l l l l l l i t 8 8 0 t t t y d J K H g > O .   . .     ",
". . . .     . @ 8 i l l l l l l y 2 $ $ 3 y i l l i i i 0 = @ + < 8 t t f k { | ) r + o     . .     ",
"  . . .       O 1 t i l l l l 0 < $ o o % 2 y i l l i 0 = @ . . @ 4 0 0 k ' { v.K 4 O .     . .     ",
"    . .       . % 3 t i l l t 3 @ o . . O % q p l l p 3 $ o . . o @ w m L ] ] ' k , o               ",
"    . .       . + * 3 0 i t 8 > o   . . . + 1 q i t 9 = O . . .   o 1 G [ ] ` j : @ .               ",
"        . .     . O % 1 q q * + . .       . + * 9 9 > @ o . .       + 7 g L j & O . .               ",
"        . .       . o @ = - @ o .           . + * * + o . .         o # , 6 + O . .           .     ",
"        . .           . O + o . .           . . o o . .           . . . o o o . .           . . .   ",
"      . .               . . . . .           .                   . . .   .   . .             . .     ",
"                            .                                                                       ",
"                                                                                                    "
};
