/* XPM */
static char *_25f35ccaeed4049adff6bba2501740ek1gd4JGoeFWSs2aP[] = {
/* columns rows colors chars-per-pixel */
"50 50 206 2 ",
"   c #000001",
".  c #010800",
"X  c #00000B",
"o  c #0A070D",
"O  c #000014",
"+  c #00001C",
"@  c #000024",
"#  c #00002B",
"$  c #090C2F",
"%  c #000033",
"&  c #01013B",
"*  c #09093B",
"=  c #020144",
"-  c #080643",
";  c #04034B",
":  c #09064E",
">  c #09084C",
",  c #14134D",
"<  c #040352",
"1  c #090554",
"2  c #03025D",
"3  c #0A055A",
"4  c #06085F",
"5  c #0C0B57",
"6  c #181758",
"7  c #050264",
"8  c #090463",
"9  c #040962",
"0  c #0B0A64",
"q  c #04026B",
"w  c #09036B",
"e  c #060A6F",
"r  c #0D086E",
"t  c #18186E",
"y  c #171560",
"u  c #040373",
"i  c #090273",
"p  c #060874",
"a  c #03017C",
"s  c #0A047D",
"d  c #0B0B78",
"f  c #100C7D",
"g  c #121575",
"h  c #191C7C",
"j  c #161877",
"k  c #23206E",
"l  c #282868",
"z  c #242464",
"x  c #242676",
"c  c #323272",
"v  c #020184",
"b  c #0B0585",
"n  c #0C0B85",
"m  c #02018B",
"M  c #0A0A8C",
"N  c #140F8D",
"B  c #0D1083",
"V  c #18148D",
"C  c #020193",
"Z  c #090494",
"A  c #02019C",
"S  c #0B059D",
"D  c #0A0A9B",
"F  c #060998",
"G  c #120D93",
"H  c #13129A",
"J  c #181899",
"K  c #1C2083",
"L  c #272A85",
"P  c #282787",
"I  c #363384",
"U  c #30348D",
"Y  c #3A3A92",
"T  c #0101A4",
"R  c #0A04A2",
"E  c #0100AC",
"W  c #0A04AB",
"Q  c #0C0CAF",
"!  c #100BA6",
"~  c #0100B4",
"^  c #0906B2",
"/  c #0201BB",
"(  c #0509BD",
")  c #0E0BB0",
"_  c #120BBB",
"`  c #211FB1",
"'  c #2A27A6",
"]  c #3634AF",
"[  c #3536B9",
"{  c #434389",
"}  c #444593",
"|  c #4B4C96",
" . c #48499B",
".. c #4B4DA0",
"X. c #6A6BA8",
"o. c #686BB9",
"O. c #7A7ABC",
"+. c #0101C4",
"@. c #0A02C4",
"#. c #0C0AC5",
"$. c #0103CB",
"%. c #0A05CA",
"&. c #0208CE",
"*. c #080BC6",
"=. c #120BCD",
"-. c #0F10CD",
";. c #1A19CB",
":. c #0304D4",
">. c #0308D6",
",. c #0D0CD5",
"<. c #0303DA",
"1. c #0904DD",
"2. c #0309DE",
"3. c #0B0ADC",
"4. c #110BD1",
"5. c #1816D8",
"6. c #2D2CCC",
"7. c #332FC1",
"8. c #332FC9",
"9. c #3633C8",
"0. c #2325D6",
"q. c #2828D8",
"w. c #2E30DA",
"e. c #3736D2",
"r. c #0505E2",
"t. c #0A0CE4",
"y. c #0D0CEB",
"u. c #0905E8",
"i. c #130DE1",
"p. c #0710E7",
"a. c #0B11E3",
"s. c #1010E2",
"d. c #1D1BE4",
"f. c #1618E4",
"g. c #2C2BE4",
"h. c #2C2BE9",
"j. c #2423E7",
"k. c #2F30E0",
"l. c #393AE4",
"z. c #3636F0",
"x. c #413FEB",
"c. c #524EC6",
"v. c #4141D7",
"b. c #5F62CB",
"n. c #6561C0",
"m. c #7A76C4",
"M. c #7E7FDB",
"N. c #4B4AE9",
"B. c #524DE8",
"V. c #4B50EA",
"C. c #5D5BED",
"Z. c #4E4DF6",
"A. c #4242F0",
"S. c #504FF2",
"D. c #534FFB",
"F. c #4E50F0",
"G. c #5454F6",
"H. c #5254F9",
"J. c #5858F8",
"K. c #565AF1",
"L. c #6563FE",
"P. c #6D6EFF",
"I. c #6D6DFD",
"U. c #6364F6",
"Y. c #706FFD",
"T. c #6F70FF",
"R. c #7272FE",
"E. c #7F82E3",
"W. c #8C929E",
"Q. c #9493AB",
"!. c #9799A8",
"~. c #8285BA",
"^. c #9394BA",
"/. c #9399B3",
"(. c #ADB1A2",
"). c #AFACBD",
"_. c #AAB1BB",
"`. c #9B9CD7",
"'. c #AFB6C0",
"]. c #B9B9D3",
"[. c #8E8FE1",
"{. c #9699E0",
"}. c #ABACE8",
"|. c #A1A1FF",
" X c #A9A4FF",
".X c #BFBDFF",
"XX c #B8B8F8",
"oX c #C1BCFF",
"OX c #C3C3C3",
"+X c #C7C4D7",
"@X c #C9CAD7",
"#X c #D8D7DC",
"$X c #CBCBE5",
"%X c #DBD9E6",
"&X c #C3C4FC",
"*X c #CBCDFF",
"=X c #D0CCFF",
"-X c #CCD0FF",
";X c #DFDEFF",
":X c #E8E8E6",
">X c #E4E6EC",
",X c #E3E5E2",
"<X c #E6E7FC",
"1X c #EAEAFF",
"2X c #E5E9FF",
"3X c #F5F7FF",
/* pixels */
"    X                 X X                                                                           ",
"                      X X                                                                           ",
"                                                                                                    ",
"                                                                                                    ",
"                                                                                                    ",
"                                                                                                    ",
"                                                                                                    ",
"                                        X                                                           ",
"                                        X                 X X     X                                 ",
"                                  X O + @ # # # # # # # # @ + O X     o                             ",
"                                  O # = 2 a Z S R R ! Z N 7 ; % X .         o   X                   ",
"                            X O @ & 9 d D ^ @.+.:.3.$.4.^ ` J L # + O X X     X                     ",
"                        X + # = p M C T E / +.&.:.:.1.3.-.w.e.[ [ P = # O .                         ",
"                      X + & < u Z E ~ / +.+.+.&.>.<.r.1.,.z.H.V.S.9.] j % + X                       ",
"                      + & 7 b S E ~ / +.+.+.+.$.>.<.y.r.f.h.H.K.L.N.B.7.V ; @ X         X           ",
"                    O % 2 b R E ~ / / +.+.$.&.&.>.1.r.t.s.h.Z.P.P.T.L.N.8.' = @         X X         ",
"X                 O % 9 v C T E ~ +./ +.$.&.$.&.>.<.t.a.<.f.z.G.P.R.Y.C.B.7.' ; O                   ",
"X               X @ 4 a m A T E ~ / / / +.&.&.>.3.3.<.2.p.3.h.D.U.I.R.R.U.v.8.B @   X X             ",
"                O % u C F A E T ~ E / / / +.:.<.1.u.<.y.u.t.j.q.Z.P.I.I.Y.C.e.J = + X               ",
"              X @ 5 a m m m C S A Q E ( +.+.%.%.@.=.%.3.y.r.3.5.g.Z.L.R.I.I.S.9.K & O               ",
"              O & 7 a n u w d u m A E / / ( W Z G G H ) 1.u.y.<.d.g.x.J.R.U.N.6.H < @               ",
"              + 3 q w [.}.&X*X1X=Xn T ( ~ T c. XoX*X;X&X_ i.r.t.3.,.g.A.F.V.H.l.6.s # X             ",
"            X @ 8 r ~./.'.@X>X3X2X-XA ~ T s `.].@X<X3X1X|.Q $.2.3.,.,.5.k.w.l.0.;.C & O X           ",
"            X # w 7 /.        :X>X*XF E C M.+       ,X2X*XH *.<.>.>.>.d.j.;.0.0.#.R < @ X           ",
"          X + - i w +         %X%XXXC T M = O   X X #X$XoXG -.<.>.>.<.<.+.+./ / / T w % X           ",
"          X @ : i q @       X +X+X}.m T a ; O   X o OX].XXM *.<.:.:.<.<.$.+.+./ / T p & X           ",
"X         X @ : w 7 % O       ).Q.`.M A M < +   o   (._.{.M ( :.&.&.:.:.$.+.+./ / T p & X           ",
"X         X # : w q 5 % O O Q.^.`.t m A C p l + O !.W.^.E.D ~ $.+.+.+.$.+.+.+./ ~ A p & X           ",
"          X # 1 w u u 8 X.X.O.m.q v R T T C s n.m.O.o.b.F E ~ ( +.+./ / +.+./ ~ ~ A u & X           ",
"          X # 1 u b v u 7 2 2 f m A W T E T S m b a M A ( *.~ / +./ ~ ~ / / ~ E E A u & O           ",
"            @ 1 q a v v a u n a C C T T A T A T T W E E ~ ( ~ / / / ~ ~ ~ ~ E E T C p & O           ",
"            @ : w a v a v v v Z C T A T T A T T / / ~ / ( / / / / ~ E E E E E T T C u & O           ",
"          X @ - 2 q a v v v v m C A A A A A A T E ~ ~ ~ ~ ~ ~ ~ ~ ~ E T T T T T T m w % O           ",
"          X @ - 2 q u a v v v v m C C A A A A T E E E E E E E E ~ ~ T A A A T T A m 8 # X           ",
"          X @ : 7 u a a v v v v m m m C A T T T T E T T A A E E E E A A A A T T A v 8 # X           ",
"          X @ 1 q u a a a v v v v v m C A T A A T A A A A A T T T T A C C A T A A v 8 % O           ",
"          X @ 1 w a p u q u v v v m m C C C C C C C C C A A A A A A A A C C C C C v 8 % X           ",
"          X @ : 7 u p e q q a v v v m m m m C m m m m C C A C C C C A A C m m m m v 8 % X           ",
"          X @ - 0 g h j e q u u u a m m v v m m m m m m C C C m m m C C C m v v v u 3 # X           ",
"            + * k L U L g q q q w w w u u a v v v v m m m v i i a v m m m m v v a q : @ X           ",
"            O # y Y .. .x h u q 8 - # # 1 0 u a v v v a a 7 % % 2 u v v v v m v s 2 % O             ",
"            X @ > I o.} } L u i ; # X X # : q a v v v u 2 & O O % < u v a v m v i ; +               ",
"              + 6 k | | | Y f w % O X X O % 8 v v v a 8 % + X X O % 7 a a a a i 8 & O               ",
"              O @ , z { }  .P 3 + X X X X + < w a a w - @ X       + ; w i u q 3 = @ X               ",
"              X O + * c I k 6 # O X       X @ = 8 8 = # O         X @ - 8 8 < * + X X X             ",
"                  X + # , , $ O X X         X @ - & @ O             X @ = ; % +     X X             ",
"                    X O O O X X               X O X X                 X O + O                       ",
"                                            X                                                       ",
"                                                                                                    ",
"                                                                                                    "
};
