/* XPM */
static char *png_clipart_red_pac_man_character_illustration_pacman_red_ghost_games_pac_man_thumbnail_removebg_preview1709875149[] = {
/* columns rows colors chars-per-pixel */
"50 50 200 2 ",
"   c #010101",
".  c #0B0101",
"X  c #000900",
"o  c #02020A",
"O  c #0D0209",
"+  c #140000",
"@  c #1B0000",
"#  c #230000",
"$  c #2A0000",
"%  c #320000",
"&  c #3B0000",
"*  c #430000",
"=  c #4C0101",
"-  c #540000",
";  c #540A05",
":  c #680302",
">  c #770808",
",  c #680C11",
"<  c #7A1619",
"1  c #781D24",
"2  c #752220",
"3  c #1F304E",
"4  c #1C355B",
"5  c #343C4F",
"6  c #253556",
"7  c #1B3A65",
"8  c #12396A",
"9  c #1E3C6C",
"0  c #1A3565",
"q  c #0D3A7C",
"w  c #0D3A73",
"e  c #143977",
"r  c #153B7C",
"t  c #1A3A75",
"y  c #232C63",
"u  c #2C3763",
"i  c #423C5E",
"p  c #970F13",
"a  c #8C1419",
"s  c #821619",
"d  c #95151C",
"f  c #9A141B",
"g  c #941A1C",
"h  c #9A1517",
"j  c #A1151E",
"k  c #881B22",
"l  c #9B1220",
"z  c #9C1D23",
"x  c #971C28",
"c  c #A31926",
"v  c #B81D2D",
"b  c #872A2A",
"n  c #9A2427",
"m  c #9A2E33",
"M  c #9A3339",
"N  c #8D3937",
"B  c #A92A2E",
"V  c #B9252B",
"C  c #BB2E2C",
"Z  c #BC312F",
"A  c #AA2533",
"S  c #A72D35",
"D  c #BB2B33",
"F  c #B92B34",
"G  c #A53433",
"H  c #AE3433",
"J  c #A9353F",
"K  c #A43838",
"L  c #B33232",
"P  c #BB3333",
"I  c #B2343C",
"U  c #B93A3C",
"Y  c #B7393B",
"T  c #D5181F",
"R  c #E5141D",
"E  c #EA151D",
"W  c #E51A1D",
"Q  c #EC1C1E",
"!  c #F1161D",
"~  c #F31A1F",
"^  c #EC211E",
"/  c #E0201D",
"(  c #CD1F20",
")  c #D41C23",
"_  c #DB1A24",
"`  c #D51E2B",
"'  c #DD1D2B",
"]  c #E61623",
"[  c #EB1623",
"{  c #E51D24",
"}  c #EC1C24",
"|  c #E41D2A",
" . c #EC1C29",
".. c #E9162B",
"X. c #F41724",
"o. c #F11A23",
"O. c #F21B2A",
"+. c #F61826",
"@. c #E31D31",
"#. c #F51B31",
"$. c #CC232A",
"%. c #CC2A2D",
"&. c #C3272B",
"*. c #D52225",
"=. c #DB2224",
"-. c #D4242B",
";. c #DC232D",
":. c #D32A2D",
">. c #D92B2D",
",. c #C5342F",
"<. c #CC2634",
"1. c #C42D33",
"2. c #CB2B34",
"3. c #C62B39",
"4. c #CC2D3A",
"5. c #C42333",
"6. c #D52532",
"7. c #DB2432",
"8. c #D32A34",
"9. c #DC2B32",
"0. c #D52B39",
"q. c #D3263B",
"w. c #C23135",
"e. c #CA3235",
"r. c #C4323D",
"t. c #CA333C",
"y. c #D1313B",
"u. c #E42124",
"i. c #EB2125",
"p. c #E3222C",
"a. c #EB222B",
"s. c #E1292B",
"d. c #F22126",
"f. c #F3222B",
"g. c #F9232F",
"h. c #E42433",
"j. c #EB2131",
"k. c #E12830",
"l. c #F32131",
"z. c #A33A45",
"x. c #AF3743",
"c. c #B13847",
"v. c #C53842",
"b. c #AC4147",
"n. c #B84446",
"m. c #BA605F",
"M. c #CB484A",
"N. c #C84B53",
"B. c #D8555B",
"V. c #D7464D",
"C. c #E04D55",
"Z. c #D3605D",
"A. c #CD5860",
"S. c #DB5866",
"D. c #D2656A",
"F. c #DC676E",
"G. c #DF7777",
"H. c #EA6872",
"J. c #E9696A",
"K. c #093A82",
"L. c #133B83",
"P. c #FB9096",
"I. c #FFA09C",
"U. c #FF99A4",
"Y. c #FFA3AC",
"T. c #FFB1AF",
"R. c #FFAAB1",
"E. c #FFB6BB",
"W. c #FFB0B2",
"Q. c #86A9C5",
"!. c #A4C2DE",
"~. c #BBCBE4",
"^. c #FFCCCE",
"/. c #FFDDD7",
"(. c #FFDFDE",
"). c #FFD3D8",
"_. c #FFE2DD",
"`. c #C4DEFF",
"'. c #FFDDE3",
"]. c #FFDEEC",
"[. c #FFE6E4",
"{. c #FFE9E7",
"}. c #FFE2EC",
"|. c #FFECED",
" X c #FFF2EC",
".X c #FFFAEC",
"XX c #FFF2E4",
"oX c #FFEEF4",
"OX c #FFE4FE",
"+X c #FFEFFF",
"@X c #FFE4F2",
"#X c #EEF7FF",
"$X c #EDFEFF",
"%X c #E4FEFF",
"&X c #FFF4F3",
"*X c #FEFCF6",
"=X c #FFF3FC",
"-X c #F5FDFE",
";X c #FDFDFE",
":X c #F4FBF3",
/* pixels */
". . o o                   o o o o o     . .     . .     .             o X X       o .   .           ",
"        o       X   o O   o o o     . . @ @ @ @ @ @ + @ @ + + . . O       X       o .   .           ",
"                    . o     X . . + @ $ , b.P.E.R.Y.E.U.z., % $ # + .   X   .     o o               ",
"                      . . . + # % b T.n.D 4.2.2.1.3.D v.3.F U I.b $ @ + . . . .     o o             ",
"o                       . # % S t.$.6.-.p.p._ u._ p.p.;.;.k.` 8.1.B.M % @ . .   o o o               ",
"            . o   .   . $ 2 B.8.@.#.a. .o.[ g.Q d.}  .i.[ [ } | =.-.4.S.1 $ @ .     o o             ",
"                    . $ n.y.q.' a.] [ } O.i.E d.[ } } } [ d.a.[  .| | -.<.N.$ . .                   ",
"          .       + $ G.<.|  . . . .} } Q o.} Q } } o.o.[ O.W a. . . . . .0.G.$ + . .               ",
"      o o . . . + $ H.6.i.} O. .[ o.O.} [ o.O.} u.u.} } o.o.}  . .[ } d.E u.<.F.$ + .               ",
".         O   . $ D.6.| O.o. . .O.[  .} o.X.[ } u.u.} } o.o.{  .{ O.W Q ~ Q p.%.D.$ + . .           ",
".             # S 8.p.} o.E | a.u.{ W a. .g.[ } u.u.{ } o.o.} } } O.d.~ E ^ ^ p.6.S # .     .       ",
"            + = 4.| } } R f.i.W u.u.a.{  .[ O.O.{ Q Q o.o.o.o.} } E ~ o.Q d.W }  .0.; + .   X       ",
".         . % A.9.R u.i.d.E u.i.Q } [  . .|  .[ i.} X.o.~ o.} i.i.} [ } O...f. .[ =.N.$ @           ",
"          @ < 1.] g.Q } O.} } } } d.| p.-.;.a.|  .[ X.X.[ [ }  .{ } } a.;.7.` | O.| 0.b @   X       ",
"o         $ V.a. .~ } Q o.o.O.} d.T :.C P ,.`  . .} +.o.} }  .} } a.i.*.w.L 3.0.| | ;.M.$     o     ",
"    o . + ; y.o.[ o.} } O.E O.| ;.e.B._._.'.N.4.;. .} }  . .}  .} ;.&.M._._.'.F.w.*.| 8.= . .       ",
"    o . $ M ` +.o.E i.i.[  .#.7.x.'.|..X&X*X=X@XV 7. .|  . .E i.;.Z [.&X&X*X&X&X[.H =.=.K $ .       ",
"  o   + % L @.+.o.^ W Q }  .@.3.].&X*X:X-X-X-X=X}.r.7. .[ O.i.=.C (.&X;X;X;X-X-X=X{.e.%.U % +       ",
"      @ & P 7. .~ d.i.Q i.) <.).&X*X*X-X$X!.y u ;X].5.f.O.Q  .8.E.oX;X=X;X$X`.4 u =X}.H J & +       ",
"X     @ - P ;. .O.E o.} { 9.L [.*X-X;X$XQ.8 t t 4 =Xr.] } } [ &.oX;X=X;X;X~.8 r w u OXz.J * @       ",
"      @ < 1.=.a.~ o.E i. .-.H {.=X;X;X$X8 q L.t 9 =XP Q } o.~ :. X;X;X;X;X6 e K.K.y OXc.I < @ .     ",
"      @ g :.)  .Q o.}  .] ;.Y [.+X;X-X-X8 q L.t 7 =XP Q Q E ~ $.|.;X;X;X-X3 e L.q u OXx.D b @       ",
".   . @ g -.|  .o.o.} u.f.' &.(. X*X;X-X%X9 8 4 5 oX2.a.[ o.o.8.|.*X*X-X;X$X4 9 7 u }.I 4.z @       ",
"      # d ;.| } o.[ { i. . .7.J.XX.X*X;X$X$X$X;X&Xm.2.[ } o.Q -.M {.*X*X-X-X#X#X;X=XY.3.<.c @       ",
"    . @ d 7.| O.o.~ u.u.[ }  .1._..X&X*X;X;X=X=X/.e.)  .d.~ Q =.e.). X*X*X-X;X;X|.{.w.=.7.l #       ",
"      # d 7.| } } ~ ^ } } }  .;.H /.{.|. X|.|.^.,.) a.{ o.Q d.i.p.4.R.{. X XoXoX_.H ( | h.c @       ",
"      # g ;.|  .o.} Q } i.Q } u.>.$.e.V v.B 1.6._  . .O.O.[  .] ..h.q.e.V C.v 4.<.6.s.a._ c #       ",
"      @ d ;.{  .Q } } } Q u.} i. .]  .a.) k.|  .f.[ [ O...O.a.}  .O.| ] | s.........[ [ | f #       ",
"      @ h ;.| } } ~ } } i./ } }  .O. .{ a.{ a.a. . .d.[ [ } W { } } i.u.Q i.a.i. .g.o.[ s.p $       ",
"      @ h p.| } } } } } } } } o.[ o.} d.E } [ R } } Q W d.} i.a.d.[ Q i.u.W W ^ } E ! d.) f $       ",
".   X @ h u.} } } } } } Q o.o.o.E f.] { } O.d.o.Q i.i.i.E E +.E [ l.W [ [ d.Q o.d.Q O. .h.l @       ",
".     @ f p.[ o.} } ^ } [ o.o.o.o.W u.} o.E d.Q O.E Q i.i.o.~ +.+.R f. .[ o.E ~ Q } [ | ;.g +       ",
"      @ f |  .o. .} Q Q } } } } { / } } Q } } o.o.O... . .Q ~ ~ o.o.o.} X.o.Q }  .} } { =.d @       ",
"      # f p.| } { } Q Q ^ } }  .} } } ~ Q ~ ~ } O. . . .u.Q ~ ~ [ } } o.~ o. .[  .} } Q =.h @ X     ",
"      $ f h.| } } } } Q [ }  . . . .O.o.} Q Q Q o.}  .|  . .} } } } } o.o.o.} i.|  .Q } ;.d @       ",
"    . # f ;.|  .o.o.o.o.o.}  . ... .+.o.} ^ ^ Q } [  . .} }  . . .|  . .+.o.} }  .} ^ { ;.l #       ",
"    . # g 6.{ }  .o.o.o.o.X.+.O. . .} o.o.} Q } } } i.} } o. .{ | u.| } [ o.[ } } { { { ;.l @ o     ",
"      @ g -.{ } } o.o.} O. .O...} } o.o.o. . . .Q } i.} +.X.} } } } u.{ o.o.} } } } Q u.| l @       ",
"      + g 7.{ { o.} Q } | u. .} } o.~ ~ [  . .| u.^ } [  . .E Q o.o.} i.Q Q i.} } } Q / ;.l # o     ",
"      @ g ;.{ Q } o. .} u.=.{ } [ o.~ Q }  . . .Q Q ~ o. . .i.Q ~ o.[ } o.} u.u.} ~ Q { ;.l #       ",
"    . @ g -.Q ~ +.o.[  .{ p.} ~ o.o.Q Q { } i.Q O.! o.o.[ } f.} o.Q i.} X.X. . .[ d.^ / *.g $       ",
"      # z *.i.E [ X. .p.;.) f.[ ~ W i.| u.i.W i.u.{ d. .i.d.[ [ o.} }  .[  .a.|  .} ^ u.*.g $ O     ",
". .   @ d ;.i.o.+. .' 8.P w.) O.[ g.{ #.{ | u.$.L P <.;. .o.+.o.~ d.| ' 7.<.8.7.|  .Q u.>.g #       ",
".     @ a 7.|  ...h.v.: * = Z *.{ E #... .k.&.> & * : U =.E [ O.[ { | $.n = - c q.p.| u.:.a # X     ",
"      @ k D =._ 7.F % @ @ @ % G *.O.#...@.2.: $ + + + & 1.a. .[ O.j.q.n $ @ @ % x q.| p.%.s #       ",
"      + = Y ` 9.v.* +   . . + $ P -. .j.<.m $ . O     @ < 1.s.i.' 6.A & + X   + & A 6.7.P < @       ",
"    o + $ U y.w.% + . o o o . + * Y -.-.K $ . . . O   + $ m &.;.:.I % + o       + & r.y.B % +       ",
"    . + # 2 K = + X   o o o   . @ & S S $ + .   O . o . + $ n L x & +     X o o   # * m N $ .       ",
"      . . + @ + .               . . @ @ . .             . . @ @ @ + .             . + @ + .         ",
"                                                                                                    "
};
