/* XPM */
static char *moveleft1709543042[] = {
/* columns rows colors chars-per-pixel */
"50 50 216 2 ",
"   c #010102",
".  c #080006",
"X  c #030A02",
"o  c #0A0D01",
"O  c #020209",
"+  c #050D0A",
"@  c #021103",
"#  c #0C1300",
"$  c #0F1A01",
"%  c #131500",
"&  c #141C02",
"*  c #191B02",
"=  c #1B1E0B",
"-  c #010310",
";  c #0A1312",
":  c #152101",
">  c #1B2302",
",  c #1D230B",
"<  c #1C3B1B",
"1  c #272D07",
"2  c #2B2E00",
"3  c #292E0E",
"4  c #243603",
"5  c #2F3100",
"6  c #2C3C02",
"7  c #2D330B",
"8  c #29380F",
"9  c #303100",
"0  c #343C00",
"q  c #3D3B04",
"w  c #35370A",
"e  c #202310",
"r  c #2E2D11",
"t  c #373F10",
"y  c #0F3325",
"u  c #344101",
"i  c #3A4A00",
"p  c #38460B",
"a  c #3C5102",
"s  c #3B4413",
"d  c #424C0D",
"f  c #484B02",
"g  c #4C5601",
"h  c #455804",
"j  c #4C5D02",
"k  c #4B5D0E",
"l  c #4F520F",
"z  c #515C0C",
"x  c #434B15",
"c  c #454B19",
"v  c #4D5212",
"b  c #4F5A13",
"n  c #4C541B",
"m  c #47521A",
"M  c #535919",
"N  c #556A08",
"B  c #587002",
"V  c #5C631C",
"C  c #556514",
"Z  c #5B7013",
"A  c #627404",
"S  c #6C7607",
"D  c #787C04",
"F  c #697716",
"G  c #7C7D1F",
"H  c #454E21",
"J  c #5D6524",
"K  c #5C6825",
"L  c #586D35",
"P  c #616A2A",
"I  c #667226",
"U  c #737B26",
"Y  c #757D28",
"T  c #6A7034",
"R  c #777C32",
"E  c #507556",
"W  c #6F8507",
"Q  c #778908",
"!  c #7F9600",
"~  c #7F9808",
"^  c #7F900C",
"/  c #768712",
"(  c #79842B",
")  c #889801",
"_  c #89960A",
"`  c #8E9B0C",
"'  c #849905",
"]  c #8B8D1F",
"[  c #839616",
"{  c #909B11",
"}  c #8DA219",
"|  c #9FAD18",
" . c #96A71A",
".. c #ABB714",
"X. c #B3B818",
"o. c #868D25",
"O. c #8D9628",
"+. c #96982C",
"@. c #808E37",
"#. c #8A973B",
"$. c #929A3E",
"%. c #91A039",
"&. c #A1A52D",
"*. c #B8BB22",
"=. c #A6B737",
"-. c #A6BB39",
";. c #B0BD3A",
":. c #A6A934",
">. c #BBC611",
",. c #BCC125",
"<. c #B2C226",
"1. c #ADC032",
"2. c #B4C63B",
"3. c #B9C53D",
"4. c #BBCE3E",
"5. c #C4CC0A",
"6. c #CAD107",
"7. c #FDF600",
"8. c #F5FD02",
"9. c #FEFE01",
"0. c #F5F60A",
"q. c #F7FF0B",
"w. c #FEFE0A",
"e. c #E8ED15",
"r. c #EEF31B",
"t. c #F5FD13",
"y. c #FBFD13",
"u. c #F7F61F",
"i. c #F5FC1C",
"p. c #FBFD1B",
"a. c #F5F517",
"s. c #CACC27",
"d. c #CDD52D",
"f. c #D3DB2A",
"g. c #DCDC2E",
"h. c #C6CC33",
"j. c #C3CC3C",
"k. c #C5C837",
"l. c #CED232",
"z. c #C7D23D",
"x. c #CDD43E",
"c. c #C9D83D",
"v. c #DBE72A",
"b. c #E6E72C",
"n. c #F6FC24",
"m. c #FAFD23",
"M. c #F6FC2B",
"N. c #F9FC2C",
"B. c #F3F726",
"V. c #E5EC34",
"C. c #E4EE3D",
"Z. c #E9ED3A",
"A. c #E5E836",
"S. c #EBF434",
"D. c #EFFC33",
"F. c #E6F43B",
"G. c #ECF93C",
"H. c #E6F834",
"J. c #F5F632",
"K. c #F4FA33",
"L. c #FAFD32",
"P. c #F4FA3A",
"I. c #FAFD3B",
"U. c #FBF734",
"Y. c #8C9343",
"T. c #8E9A46",
"R. c #919A44",
"E. c #979D47",
"W. c #95A343",
"Q. c #9BA444",
"!. c #95A74B",
"~. c #93A352",
"^. c #9CAC52",
"/. c #9EB251",
"(. c #A3AB48",
"). c #AAB748",
"_. c #B5BD4E",
"`. c #A2B451",
"'. c #ABB751",
"]. c #B1BA51",
"[. c #80A06E",
"{. c #B5C342",
"}. c #BAC749",
"|. c #BFD141",
" X c #B3C057",
".X c #C2CD40",
"XX c #D3D84D",
"oX c #C6CF50",
"OX c #CAD455",
"+X c #C8D656",
"@X c #D0D658",
"#X c #D4DC5C",
"$X c #D5DB53",
"%X c #C6D848",
"&X c #DDE44E",
"*X c #DEE946",
"=X c #D5E555",
"-X c #DBE453",
";X c #DDEB56",
":X c #D8E75D",
">X c #E6EE44",
",X c #E9F543",
"<X c #ECFA41",
"1X c #E5F34C",
"2X c #ECF449",
"3X c #E4F544",
"4X c #F1FC41",
"5X c #F1F94B",
"6X c #F5F549",
"7X c #E2E957",
"8X c #E4F152",
"9X c #ECF554",
"0X c #E1F258",
"qX c #F5F350",
"wX c #DCE474",
"eX c #DDF070",
/* pixels */
"            . .         O O     X + & 6 g A Q ' ' ' ~ W B h 0 : X X   O O                     .     ",
"                .       O   X % t K T.].oX7X8X1X,X3X3X8X:X+X).#.K s : X         X     .             ",
"          . .       O   + e l +.k.C.4XN.m.u.p.p.p.p.p.p.B.B.L.U.C.j.o.d > X           X   O O       ",
".               O   X & c $.XX2XU.p.w.7.w.9.7.7.9.7.9.w.w.q.9.9.y.L.9X@X#.d # . .       O O O O     ",
"    . .           X 7 Y j.P.N.m.y.9.8.9.w.w.7.9.9.9.7.9.w.w.w.w.w.0.i.L.F..XR r     .     X X O     ",
"    .     X     $ x Q.7XN.9.w.8.8.9.9.9.8.9.7.w.9.w.9.w.w.w.9.9.9.9.w.8.t.I.-XQ.x o   O             ",
"O   O .     X $ k 2.G.B.9.9.9.9.9.9.9.9.9.w.y.y.w.w.9.7.w.w.w.9.9.9.9.w.9.y.n.3X;.n # O O           ",
"    O       $ J |.K.t.9.w.9.7.9.9.9.9.q.N.S.g.s.A.J.y.w.w.7.7.9.9.9.9.7.7.7.9.t.,X}.M @             ",
".     X   % z |.D.q.w.9.w.w.7.w.9.9.9.i.&XG 5 5 f :.D.q.9.9.9.9.9.9.9.w.9.9.9.w.i.G.{.V X   X       ",
"  .     @ x 3.D.y.9.9.9.w.7.9.9.9.w.q.S.F #       2 ..i.q.9.9.q.9.9.q.w.9.9.9.9.w.i.F.=.p           ",
".       8 W.4Xy.9.9.9.9.w.w.9.9.w.w.i.l.9         X S S.t.8.w.w.9.9.8.9.9.9.9.9.9.w.p.<XW.r   O     ",
"    O & ( 0Xn.9.9.9.7.w.w.w.w.9.7.0.N.*.*     X     g G.t.9.w.7.9.9.9.9.9.9.9.9.9.9.9.m.$XR # O     ",
"O   X v c.B.w.w.w.w.9.w.w.w.w.9.w.w.i.d.0       O o D P.0.9.9.w.9.9.9.9.9.9.9.9.9.w.7.w.L.j.H +     ",
"-   e $.P.8.9.9.w.7.w.w.w.9.9.w.7.w.w.S.o.*     . q k.N.y.w.9.9.9.9.9.9.9.w.9.9.7.9.9.w.t.G.Y.&     ",
"  X M XXN.w.9.9.7.9.w.9.w.w.9.9.9.w.q.i.C.{ g f D *.J.t.w.9.7.9.7.9.9.9.q.w.w.7.9.7.9.9.8.M.oXv o   ",
"X & +.6Xp.7.9.9.9.9.9.9.9.7.9.9.w.9.w.8.m.D.>X>XV.N.w.w.9.9.9.9.9.9.9.9.w.9.9.9.w.9.9.9.8.i.5X] % . ",
"O s x.u.w.9.9.9.9.9.9.9.9.9.9.9.9.9.9.9.q.y.i.i.y.y.w.9.9.9.w.9.9.9.9.9.9.9.9.9.9.9.9.w.9.w.u.s.q   ",
"; T Z.y.w.9.9.9.w.9.9.9.9.9.w.w.9.9.9.9.9.9.9.9.9.9.9.9.9.9.w.9.9.9.9.9.9.9.9.9.9.9.9.9.9.w.w.b.V o ",
": R.P.w.w.9.w.w.7.9.9.9.9.9.9.9.9.9.9.9.9.9.9.9.9.9.9.9.9.9.9.9.9.9.9.9.9.9.9.9.9.9.9.9.9.9.w.J.#.& ",
"6 }.M.9.9.9.9.w.w.9.9.9.9.9.9.9.7.9.9.9.7.9.9.9.9.9.9.9.9.9.9.9.9.9.9.9.9.9.9.9.9.9.9.9.w.7.w.L.'.4 ",
"j $XN.9.9.9.w.w.w.9.9.9.9.9.9.9.9.9.9.9.w.9.9.9.9.9.9.9.9.9.9.9.9.9.9.9.9.9.9.9.9.9.9.9.9.9.9.M.oXa ",
"A :XL.t.y.w.y.w.w.w.9.9.w.w.9.w.w.9.9.w.9.9.9.9.9.9.9.9.9.9.9.9.9.9.9.9.9.9.9.9.9.9.9.9.9.9.9.n.:XN ",
"( wXqXU.N.n.n.i.t.y.t.q.y.w.w.9.9.9.9.7.9.9.9.9.9.9.9.9.9.9.9.9.9.9.9.9.9.9.9.9.9.9.9.9.9.9.9.i.:XW ",
"L ~.&.*.*.*.s.d.f.f.v.v.V.V.S.B.n.n.n.m.m.p.p.y.w.q.q.9.9.9.9.9.9.9.9.9.9.9.9.9.9.9.9.9.9.9.9.p.8X^ ",
"y < 6 u i i a k k C Z F F F / / ^ [ }  .| ..X.>.6.r.p.w.7.9.9.9.9.9.9.9.9.9.9.9.9.9.9.9.9.9.9.p.1X' ",
"E [.W.$.W.!.!.~.^././.`.`.`.).-.-.-.1.1.<.<.>.5.6.e.p.w.w.9.7.9.9.9.9.9.9.9.9.9.9.9.9.9.9.9.9.p.,X) ",
"#.eX5XJ.J.D.P.D.K.K.D.M.K.K.n.B.M.M.n.n.n.i.t.t.q.w.w.9.9.9.9.9.9.9.9.9.9.9.9.9.9.9.9.9.9.9.9.t.3X! ",
"/ 9Xm.w.w.9.w.9.w.9.9.w.w.w.w.9.9.9.9.9.9.9.9.9.w.9.9.9.9.9.9.9.9.9.9.9.9.9.9.9.9.9.9.9.9.9.9.i.*XW ",
"S 7Xm.9.9.9.9.9.9.9.9.9.9.9.9.9.9.9.9.9.9.9.9.9.9.7.9.9.9.9.9.9.9.9.9.9.9.9.9.9.9.9.9.9.9.9.9.n.=XB ",
"z @Xn.9.9.9.w.9.9.9.9.9.9.9.9.9.9.9.9.7.9.9.9.9.9.9.9.9.9.9.9.9.9.9.9.9.9.9.9.9.9.9.9.9.9.9.9.m.+Xh ",
"0 _.L.9.9.9.9.7.7.9.9.9.w.9.9.9.9.w.9.9.9.9.9.w.9.9.9.9.9.9.9.9.9.9.9.9.9.9.9.9.9.9.9.9.9.9.9.M.`.4 ",
"> E.K.q.9.9.9.w.9.9.9.9.9.9.9.9.9.9.9.w.9.9.9.9.9.9.9.9.9.9.9.9.9.9.9.9.9.9.9.9.9.9.9.9.9.9.w.P.T.$ ",
"@ I C.t.w.9.7.9.9.9.9.9.9.9.9.8.9.9.9.9.9.w.9.9.9.9.9.9.9.9.9.9.9.9.9.9.9.9.9.7.w.7.w.9.9.8.w.V.P o ",
"X p j.L.y.9.9.9.w.9.9.9.9.9.9.9.9.9.9.9.9.9.9.9.9.9.9.9.9.9.9.9.9.9.9.9.w.9.9.9.9.w.7.9.8.q.n.h.t   ",
"  > +.5Xi.w.w.7.w.w.9.9.9.9.9.9.9.9.9.9.9.9.9.9.9.9.9.9.9.9.9.9.9.9.9.9.w.w.9.9.9.9.7.9.w.t.2Xo.&   ",
"  @ k $XM.9.w.9.w.w.9.9.9.9.w.9.9.9.9.9.9.9.9.9.9.9.9.9.9.9.9.9.9.9.9.w.w.9.8.9.9.7.w.7.9.M.#Xl     ",
"  X 1 $.F.w.9.9.9.9.9.9.9.w.9.9.9.9.9.9.9.9.9.9.9.9.9.9.9.9.9.9.9.w.w.9.9.9.9.9.w.9.7.9.q.G.Y.=     ",
"    X n z.L.0.9.9.9.9.9.9.q.9.w.9.9.9.9.9.9.9.9.9.9.9.9.9.9.9.9.9.w.w.w.8.9.9.9.9.9.9.q.L.j.x       ",
"    O = ( 7Xp.9.9.9.9.9.9.9.w.w.9.9.9.9.9.9.9.9.9.9.9.9.9.9.9.9.9.7.9.9.9.8.9.9.7.9.w.n.&XU &       ",
"  X     7 (.G.t.w.7.9.9.9.9.9.9.9.9.9.9.9.9.9.9.9.9.9.9.9.9.9.9.9.9.9.9.9.9.9.w.w.w.t.G.W.1         ",
"O       o x {.G.m.8.w.9.7.w.w.7.9.9.9.9.9.9.9.9.9.9.9.9.9.9.9.9.9.9.7.9.9.9.9.w.w.t.P.;.c X         ",
"      .   $ V }.H.p.y.9.w.w.9.9.9.9.9.9.9.9.9.9.9.9.9.9.9.9.9.9.w.w.w.w.9.9.9.q.t.P.}.z X           ",
"            $ K %XH.m.w.7.9.9.7.9.9.9.9.9.9.9.9.9.9.9.9.9.9.9.9.9.9.9.9.9.9.9.t.4X3.V o   X   X     ",
"    X     O   $ j 2.5XN.y.9.9.w.9.w.9.9.9.9.9.9.9.9.9.9.9.9.9.9.w.7.9.9.7.y.m.F.{.b o   O           ",
".         O     # m Q.7XN.8.w.8.9.9.w.9.9.9.9.9.9.9.9.9.9.9.9.9.8.9.w.9.w.N.XX(.s #                 ",
"  .               X 5 ( x.H.M.i.w.w.7.w.w.9.9.9.9.9.9.9.9.9.9.9.w.8.i.K.4X.XY 1 X   O X     O       ",
"  . O O X           X $ c W.:X2Xa.w.w.9.9.9.9.9.9.9.9.9.9.9.9.w.9.n.2X@XT.c & X           O .       ",
"      O                 + , v +.l.b.I.U.n.m.m.t.p.p.p.p.m.n.M.K.Z.h.O.b e X                   .     ",
"                            X & s P T. X@X;X8X2X3X2X1X1X-XOX].T.K s & X                             ",
"                              O   @ : 6 h A ^ _ ` { _ Q A h 6 & + O O                               "
};
