/* XPM */
static char *moveright1709543042[] = {
/* columns rows colors chars-per-pixel */
"50 50 125 2 ",
"   c #000000",
".  c #020509",
"X  c #04080F",
"o  c #060B14",
"O  c #080E18",
"+  c #0B131E",
"@  c #0C1523",
"#  c #0E1826",
"$  c #0C172A",
"%  c #0E1A2C",
"&  c #101C2F",
"*  c #0F1C30",
"=  c #111E32",
"-  c #1A262D",
";  c #132134",
":  c #182631",
">  c #1B2831",
",  c #233136",
"<  c #28383C",
"1  c #33423B",
"2  c #43543F",
"3  c #1B2C43",
"4  c #1D3046",
"5  c #1F3349",
"6  c #192F50",
"7  c #1B3254",
"8  c #1D3558",
"9  c #22364D",
"0  c #263A4D",
"q  c #283D4F",
"w  c #293E50",
"e  c #233D64",
"r  c #384940",
"t  c #2C4354",
"y  c #304757",
"u  c #344C5A",
"i  c #3A535C",
"p  c #3F595F",
"a  c #254064",
"s  c #2C496D",
"d  c #3B5560",
"f  c #3F5860",
"g  c #314F70",
"h  c #375573",
"j  c #405141",
"k  c #40595F",
"l  c #576944",
"z  c #5A6B43",
"x  c #4D665C",
"c  c #526A5C",
"v  c #59715C",
"b  c #647645",
"n  c #6A7C45",
"m  c #627B5F",
"M  c #405960",
"N  c #4A6464",
"B  c #4F6A66",
"V  c #4E6B6F",
"C  c #526D65",
"Z  c #5E7760",
"A  c #5F7964",
"S  c #52716F",
"D  c #40627F",
"F  c #4A6C7C",
"G  c #597874",
"H  c #537378",
"J  c #647E64",
"K  c #607E6F",
"L  c #7B8C43",
"P  c #67805E",
"I  c #6A825D",
"U  c #7D9354",
"Y  c #77915E",
"T  c #7A935D",
"R  c #668064",
"E  c #6A8565",
"W  c #6F8965",
"Q  c #698569",
"!  c #738D63",
"~  c #8C9C3E",
"^  c #9DAC37",
"/  c #ACBC35",
"(  c #A3B43F",
")  c #A7B83D",
"_  c #ACBC3A",
"`  c #B0BF39",
"'  c #BAC72E",
"]  c #BFCB2F",
"[  c #B4C234",
"{  c #B8C634",
"}  c #BECA32",
"|  c #B2C13A",
" . c #D6DE1E",
".. c #D8DF1E",
"X. c #DCE31B",
"o. c #EBEF0E",
"O. c #EEF10E",
"+. c #F7F906",
"@. c #FFFF00",
"#. c #F2F50B",
"$. c #F7F909",
"%. c #E5EA14",
"&. c #EAEE11",
"*. c #EDF111",
"=. c #C1CD2D",
"-. c #CBD526",
";. c #CFD824",
":. c #C6D12C",
">. c #C8D329",
",. c #D3DC21",
"<. c #C0CC30",
"1. c #869B4E",
"2. c #8A9E4C",
"3. c #819752",
"4. c #859B53",
"5. c #899E50",
"6. c #8DA24E",
"7. c #91A345",
"8. c #97A944",
"9. c #99AA42",
"0. c #96A94A",
"q. c #98AB49",
"w. c #8CA251",
"e. c #A1B244",
"r. c #456880",
/* pixels */
"                                  o % 5 u B J ! Y Y ! J B u 9 % o                                   ",
"                            . $ q x 3.` ,.%.#.+.+.+.+.#.%.,.[ 4.c 0 $ .                             ",
"                        . & u U <.O.@.@.@.@.@.@.@.@.@.@.@.@.@.@.*.=.U i ; .                         ",
"                      @ y 3. .@.@.@.@.@.@.@.@.@.@.@.@.@.@.@.@.@.@.@.@.,.4.u @                       ",
"                  . 3 m :.+.@.@.@.@.@.@.@.@.@.@.@.@.@.@.@.@.@.@.@.@.@.@.+.-.R 3 .                   ",
"                o t 6.o.@.@.@.@.@.@.@.@.@.@.@.@.@.@.@.@.@.@.@.@.@.@.@.@.@.@.O.0.u O                 ",
"              O d _ @.@.@.@.@.@.@.@.@.@.@.@.@.@.@.@.@.@.@.@.@.@.@.@.@.@.@.@.@.@.{ d +               ",
"            O f } @.@.@.@.@.@.@.@.@.@.@.@.@.@.@.@.%.>. .$.@.@.@.@.@.@.@.@.@.@.@.@.:.N +             ",
"          o d } @.@.@.@.@.@.@.@.@.@.@.@.@.@.@.+.^ r - , n X.@.@.@.@.@.@.@.@.@.@.@.@.=.f O           ",
"        . t _ @.@.@.@.@.@.@.@.@.@.@.@.@.@.@.@./ :       o b #.@.@.@.@.@.@.@.@.@.@.@.@.{ u X         ",
"        3 2.+.@.@.@.@.@.@.@.@.@.@.@.@.@.@.@.$.l .         - >.@.@.@.@.@.@.@.@.@.@.@.@.@.8.5         ",
"      @ Z O.@.@.@.@.@.@.@.@.@.@.@.@.@.@.@.@.#.2           # [ @.@.@.@.@.@.@.@.@.@.@.@.@.#.P $       ",
"    . y =.@.@.@.@.@.@.@.@.@.@.@.@.@.@.@.@.@.+.b .         , ,.@.@.@.@.@.@.@.@.@.@.@.@.@.@.-.u .     ",
"    * 3.@.@.@.@.@.@.@.@.@.@.@.@.@.@.@.@.@.@.@.=.< .   . @ L +.@.@.@.@.@.@.@.@.@.@.@.@.@.@.@.5.;     ",
"  . u ,.@.@.@.@.@.@.@.@.@.@.@.@.@.@.@.@.@.@.@.@.' l 1 j ~ O.@.@.@.@.@.@.@.@.@.@.@.@.@.@.@.@.X.p .   ",
"  @ U +.@.@.@.@.@.@.@.@.@.@.@.@.@.@.@.@.@.@.@.@.@.#.%.&.@.@.@.@.@.@.@.@.@.@.@.@.@.@.@.@.@.@.@.3.$   ",
"  0 } @.@.@.@.@.@.@.@.@.@.@.@.@.@.@.@.@.@.@.@.@.@.@.@.@.@.@.@.@.@.@.@.@.@.@.@.@.@.@.@.@.@.@.@.=.t   ",
"o x &.@.@.@.@.@.@.@.@.@.@.@.@.@.@.@.@.@.@.@.@.@.@.@.@.@.@.@.@.@.@.@.@.@.@.@.@.@.@.@.@.@.@.@.@.#.v O ",
"$ U @.@.@.@.@.@.@.@.@.@.@.@.@.@.@.@.@.@.@.@.@.@.@.@.@.@.@.@.@.@.@.@.@.@.@.@.@.@.@.@.@.@.@.@.@.@.2.= ",
"3 / @.@.@.@.@.@.@.@.@.@.@.@.@.@.@.@.@.@.@.@.@.@.@.@.@.@.@.@.@.@.@.@.@.@.@.@.@.@.@.@.@.@.@.@.@.@.{ 9 ",
"u -.@.@.@.@.@.@.@.@.@.@.@.@.@.@.@.@.@.@.@.@.@.@.@.@.@.@.@.@.@.@.@.@.@.@.@.@.@.@.@.@.@.@.@.@.@.@. .i ",
"N %.@.@.@.@.@.@.@.@.@.@.@.@.@.@.@.@.@.@.@.@.@.@.@.@.@.@.@.@.@.@.@.@.@.@.@.@.@.@.@.@.@.@.@.@.@.@.o.C ",
"A #.@.@.@.@.@.@.@.@.@.@.@.@.@.@.@.@.@.@.@.@.@.@.@.@.@.@.@.@.@.@.@.@.@.@.@.@.@.@.@.@.@.@.@.@.@.@.#.W ",
"W #.@.@.@.@.@.@.@.@.@.@.@.@.@.@.@.@.@.@.@.@.@.@.@.@.@.@.@.@.@.@.@.+.+.#.#.o.%.X. .,.:.] [ _ ( 8.2.V ",
"! +.@.@.@.@.@.@.@.@.@.@.@.@.@.@.@.@.@.@.@.@.@.@.#.] [ _ e.q.6.U Y ! Q K G H F r.D h g s a e 8 7 6 3 ",
"! +.@.@.@.@.@.@.@.@.@.@.@.@.@.@.@.@.@.@.@.@.@.@.O.=.' [ [ / / | _ ) ) ( e.e.e.e.e.9.9.9.7.7.7.2.2.S ",
"W +.@.@.@.@.@.@.@.@.@.@.@.@.@.@.@.@.@.@.@.@.@.@.@.@.@.@.@.@.@.@.@.@.@.@.@.@.@.@.@.@.@.@.@.@.@.@.+.Y ",
"J O.@.@.@.@.@.@.@.@.@.@.@.@.@.@.@.@.@.@.@.@.@.@.@.@.@.@.@.@.@.@.@.@.@.@.@.@.@.@.@.@.@.@.@.@.@.@.#.W ",
"N %.@.@.@.@.@.@.@.@.@.@.@.@.@.@.@.@.@.@.@.@.@.@.@.@.@.@.@.@.@.@.@.@.@.@.@.@.@.@.@.@.@.@.@.@.@.@.&.C ",
"u ;.@.@.@.@.@.@.@.@.@.@.@.@.@.@.@.@.@.@.@.@.@.@.@.@.@.@.@.@.@.@.@.@.@.@.@.@.@.@.@.@.@.@.@.@.@.@.X.d ",
"4 _ @.@.@.@.@.@.@.@.@.@.@.@.@.@.@.@.@.@.@.@.@.@.@.@.@.@.@.@.@.@.@.@.@.@.@.@.@.@.@.@.@.@.@.@.@.@.{ 9 ",
"$ U @.@.@.@.@.@.@.@.@.@.@.@.@.@.@.@.@.@.@.@.@.@.@.@.@.@.@.@.@.@.@.@.@.@.@.@.@.@.@.@.@.@.@.@.@.@.2.= ",
"o x &.@.@.@.@.@.@.@.@.@.@.@.@.@.@.@.@.@.@.@.@.@.@.@.@.@.@.@.@.@.@.@.@.@.@.@.@.@.@.@.@.@.@.@.@.#.v o ",
"  0 } @.@.@.@.@.@.@.@.@.@.@.@.@.@.@.@.@.@.@.@.@.@.@.@.@.@.@.@.@.@.@.@.@.@.@.@.@.@.@.@.@.@.@.@.:.t   ",
"  # U +.@.@.@.@.@.@.@.@.@.@.@.@.@.@.@.@.@.@.@.@.@.@.@.@.@.@.@.@.@.@.@.@.@.@.@.@.@.@.@.@.@.@.@.4.%   ",
"  . u  .@.@.@.@.@.@.@.@.@.@.@.@.@.@.@.@.@.@.@.@.@.@.@.@.@.@.@.@.@.@.@.@.@.@.@.@.@.@.@.@.@.@.X.k .   ",
"    & 3.@.@.@.@.@.@.@.@.@.@.@.@.@.@.@.@.@.@.@.@.@.@.@.@.@.@.@.@.@.@.@.@.@.@.@.@.@.@.@.@.@.@.w.=     ",
"    . y =.@.@.@.@.@.@.@.@.@.@.@.@.@.@.@.@.@.@.@.@.@.@.@.@.@.@.@.@.@.@.@.@.@.@.@.@.@.@.@.@.-.i .     ",
"      @ m O.@.@.@.@.@.@.@.@.@.@.@.@.@.@.@.@.@.@.@.@.@.@.@.@.@.@.@.@.@.@.@.@.@.@.@.@.@.@.#.I $       ",
"        3 6.@.@.@.@.@.@.@.@.@.@.@.@.@.@.@.@.@.@.@.@.@.@.@.@.@.@.@.@.@.@.@.@.@.@.@.@.@.@.0.5         ",
"        . y ` @.@.@.@.@.@.@.@.@.@.@.@.@.@.@.@.@.@.@.@.@.@.@.@.@.@.@.@.@.@.@.@.@.@.@.@.{ u .         ",
"          o d <.@.@.@.@.@.@.@.@.@.@.@.@.@.@.@.@.@.@.@.@.@.@.@.@.@.@.@.@.@.@.@.@.@.@.=.p O           ",
"            O M } @.@.@.@.@.@.@.@.@.@.@.@.@.@.@.@.@.@.@.@.@.@.@.@.@.@.@.@.@.@.@.@.:.N +             ",
"              O d | @.@.@.@.@.@.@.@.@.@.@.@.@.@.@.@.@.@.@.@.@.@.@.@.@.@.@.@.@.@.{ f @               ",
"                O t 6.O.@.@.@.@.@.@.@.@.@.@.@.@.@.@.@.@.@.@.@.@.@.@.@.@.@.@.#.0.u O                 ",
"                  . 3 m :.+.@.@.@.@.@.@.@.@.@.@.@.@.@.@.@.@.@.@.@.@.@.@.@.-.I 4 .                   ",
"                      @ u 4.,.@.@.@.@.@.@.@.@.@.@.@.@.@.@.@.@.@.@.@.@...5.u #                       ",
"                        . ; i U =.O.@.@.@.@.@.@.@.@.@.@.@.@.@.@.#.=.3.p ; .                         ",
"                            . # w c 1.[ ,.%.#.+.@.+.+.#.&. .[ 5.c w $ .                             ",
"                                  o % 5 u B R ! T T ! E B i 5 * o                                   "
};
