/* XPM */
static char *movedown1709543041[] = {
/* columns rows colors chars-per-pixel */
"50 50 221 2 ",
"   c #010201",
".  c #090600",
"X  c #040A00",
"o  c #0A0B00",
"O  c #03020B",
"+  c #09050C",
"@  c #040809",
"#  c #120D00",
"$  c #061100",
"%  c #0D1300",
"&  c #131400",
"*  c #141B00",
"=  c #1C1D00",
"-  c #1A1700",
";  c #030013",
":  c #162400",
">  c #1C2200",
",  c #1F2C01",
"<  c #232400",
"1  c #242B00",
"2  c #2D2C00",
"3  c #312F02",
"4  c #2C3500",
"5  c #2D3B01",
"6  c #333502",
"7  c #313E00",
"8  c #3D3C04",
"9  c #344400",
"0  c #3B4102",
"q  c #344900",
"w  c #3C450C",
"e  c #3E5000",
"r  c #444605",
"t  c #454C02",
"y  c #4B4C04",
"u  c #434B09",
"i  c #475700",
"p  c #4B5501",
"a  c #4F5E00",
"s  c #4D520C",
"d  c #415D00",
"f  c #505000",
"g  c #535D01",
"h  c #52590C",
"j  c #585B0A",
"k  c #454611",
"l  c #4B4C12",
"z  c #4E5011",
"x  c #585E18",
"c  c #4A6000",
"v  c #5E6A00",
"b  c #5C630E",
"n  c #576305",
"m  c #5E7C00",
"M  c #5C6313",
"N  c #5F661D",
"B  c #626C00",
"V  c #657300",
"C  c #6B7401",
"Z  c #6A7B06",
"A  c #777B05",
"S  c #636915",
"D  c #636B1B",
"F  c #686D19",
"G  c #6B701E",
"H  c #747C1C",
"J  c #556620",
"K  c #606A23",
"L  c #6F7020",
"P  c #7A7D29",
"I  c #637539",
"U  c #748100",
"Y  c #7B8A00",
"T  c #778900",
"R  c #75930F",
"E  c #7A8122",
"W  c #7C9136",
"Q  c #808F00",
"!  c #859302",
"~  c #8A9702",
"^  c #879A00",
"/  c #8C9B02",
"(  c #868A1B",
")  c #9B9E1B",
"_  c #8FA200",
"`  c #94AA00",
"'  c #A3B702",
"]  c #ADBD1F",
"[  c #848A28",
"{  c #8C9428",
"}  c #97992B",
"|  c #8E933B",
" . c #8E9939",
".. c #939B35",
"X. c #939D3A",
"o. c #9A9C3E",
"O. c #929638",
"+. c #9AAA2E",
"@. c #96A82E",
"#. c #9FAC35",
"$. c #99A33C",
"%. c #93A539",
"&. c #89A338",
"*. c #A6B42D",
"=. c #A8B729",
"-. c #A9B825",
";. c #B1B321",
":. c #A4AC34",
">. c #A5A83F",
",. c #ABB33F",
"<. c #A4B032",
"1. c #BABD3C",
"2. c #AEC208",
"3. c #B1C502",
"4. c #BBCC01",
"5. c #AEC519",
"6. c #B5C71B",
"7. c #BAC022",
"8. c #BAC736",
"9. c #C6D500",
"0. c #F5F503",
"q. c #FCF603",
"w. c #F6FC04",
"e. c #FEFE02",
"r. c #F9F70C",
"t. c #F5FC0B",
"y. c #FDFD0A",
"u. c #F5F70D",
"i. c #ECF513",
"p. c #EFF718",
"a. c #F7F610",
"s. c #F5FD13",
"d. c #FCFD13",
"f. c #F5FC1A",
"g. c #FAFD1B",
"h. c #F8F711",
"j. c #C0CA28",
"k. c #C9D22B",
"l. c #C5CE3F",
"z. c #C5C93B",
"x. c #CED631",
"c. c #D4DB36",
"v. c #DBE437",
"b. c #DCE33C",
"n. c #DFE833",
"m. c #EDEF2D",
"M. c #E4EF2F",
"N. c #EFFA23",
"B. c #E9F62D",
"V. c #EEFB2B",
"C. c #EEF724",
"Z. c #F3F724",
"A. c #F5FC24",
"S. c #FAFE23",
"D. c #F2F52D",
"F. c #F4FC2B",
"G. c #FBFE2C",
"H. c #F8F72B",
"J. c #E6EE37",
"K. c #EDF933",
"L. c #ECF439",
"P. c #EBF435",
"I. c #F5FB33",
"U. c #FBFD33",
"Y. c #F4FC3C",
"T. c #FBFE39",
"R. c #F5F639",
"E. c #949D45",
"W. c #899A56",
"Q. c #91A04B",
"!. c #A6AA41",
"~. c #A1A544",
"^. c #AAB546",
"/. c #B2BB45",
"(. c #B7BC4A",
"). c #BDC845",
"_. c #B7C446",
"`. c #C4CB44",
"'. c #C5CC49",
"]. c #C4C94C",
"[. c #CAD44A",
"{. c #C9D648",
"}. c #D1D342",
"|. c #C4CB53",
" X c #CAD554",
".X c #D5D654",
"XX c #D3DA54",
"oX c #D4DA5B",
"OX c #DEE641",
"+X c #D6E24C",
"@X c #DCE44C",
"#X c #DCEA4D",
"$X c #DCE942",
"%X c #DBE356",
"&X c #DEE25B",
"*X c #DAEF54",
"=X c #DDF45C",
"-X c #E5ED44",
";X c #E5ED4A",
":X c #E6E845",
">X c #E5F243",
",X c #EAF242",
"<X c #EDFA41",
"1X c #E5F14D",
"2X c #ECF44A",
"3X c #ECF94C",
"4X c #F4FA43",
"5X c #F9FE44",
"6X c #F2F64C",
"7X c #F3FB4B",
"8X c #F6FA47",
"9X c #E5EC54",
"0X c #E3EF5B",
"qX c #EFF954",
"wX c #EBF456",
"eX c #F0F554",
"rX c #F4F955",
"tX c #F4FA5A",
"yX c #DBED63",
"uX c #D9EC76",
"iX c #EDFA64",
/* pixels */
"          O                   X X $ * 5 p B U ! ~ / ! U v i 5 : %   X X @ @         .       O   @   ",
"    O O               X     o * 9 N | ^.'.XX;X,X,X>X-X#X%X X^. .M 0 = X         X       O           ",
"    O         @ O O     X = t } 8.OX2X4XT.U.G.g.g.g.g.A.U.T.4X,XOXl.( t > o   X X     + O O         ",
"  O O           +   . - r O.|.9XR.S.f.d.d.y.e.e.e.e.e.e.y.t.d.S.A.V.3XXX| k -     X           +     ",
"; O   X           X 3 L ].eX7XT.S.d.r.y.y.q.q.e.e.e.e.e.y.y.y.r.d.d.f.I.2X[.P 6 .     X         @   ",
"; O       X   X % 8 E.&X8XZ.Z.d.y.e.y.e.y.e.e.e.e.e.e.e.e.e.y.e.e.e.y.t.p.5X&X$.u o   X X   +       ",
"O O X     X   % x (.wXY.S.w.y.q.e.e.e.e.e.e.e.w.e.e.e.e.e.e.e.e.e.e.e.y.d.g.I.eX/.x &     O   + O   ",
"O           % x /.qXI.t.w.e.e.e.e.e.e.e.e.y.w.e.w.e.e.y.e.e.e.y.e.e.e.e.e.q.h.H.3X).n %   O     O   ",
"    X     o h |.3XV.s.w.e.e.e.e.e.e.e.e.e.e.e.e.e.e.e.e.e.e.e.y.e.y.e.e.e.e.r.g.F.<X8.c %   @       ",
"        o z ,.;XF.s.w.e.e.e.e.e.q.e.q.e.e.e.e.e.e.e.e.e.e.e.e.e.e.w.e.e.e.e.y.y.t.N.<X_.w     @     ",
"        2 ~.wXF.s.w.y.y.e.e.e.e.e.e.e.e.e.e.e.e.e.e.e.e.e.e.e.e.y.y.e.e.q.y.r.y.y.t.V.3X$.1 X       ",
"O   . & P %XY.s.w.e.y.y.e.e.e.e.e.e.e.y.e.e.y.e.e.e.e.e.e.e.e.e.y.y.y.y.y.y.y.q.e.w.t.V.0XH -     O ",
"O   o y ].7XZ.y.e.e.e.e.e.e.e.e.e.e.e.e.e.e.e.e.e.e.e.e.e.e.e.e.e.e.y.y.y.y.y.e.e.e.y.s.L.[.r &   O ",
"O   = ..2XH.d.e.e.e.e.e.y.y.w.e.e.e.e.e.e.e.e.e.e.e.e.e.e.e.e.e.e.e.e.e.e.e.e.y.y.y.w.t.f.2Xo.<     ",
"  % h [.4Xp.y.e.e.e.e.e.y.y.w.e.e.e.e.e.e.e.e.e.e.e.e.e.e.e.e.e.e.e.e.e.e.e.e.e.y.y.e.y.t.I..Xf o X ",
"  * { >XF.w.y.e.e.e.q.e.e.y.y.w.e.e.e.e.e.e.e.e.e.e.e.e.e.e.e.e.e.e.e.e.e.e.e.e.y.y.e.e.q.G.2X} & X ",
"X w l.I.d.e.e.e.e.q.q.e.w.y.e.e.e.e.e.e.e.e.e.e.e.e.e.e.e.e.e.y.e.e.e.e.e.e.e.y.e.e.e.e.t.g.R.z.q X ",
"$ J OXS.y.e.e.0.e.e.e.e.e.e.e.e.e.e.e.e.w.e.e.e.e.e.e.e.e.e.e.y.e.e.e.e.e.y.y.e.e.e.e.e.w.d.S.:XD $ ",
":  .4Xg.y.e.e.e.e.e.q.e.e.e.e.e.e.e.e.e.e.e.e.e.e.e.e.e.e.e.y.e.e.e.e.e.e.y.e.y.e.e.e.e.y.u.S.6XX.: ",
"5 /.Y.t.e.e.e.y.y.q.e.e.y.e.0.e.e.e.e.e.e.e.e.e.e.e.e.e.e.e.e.e.e.e.e.e.e.e.e.e.e.e.e.e.y.d.h.8X(.5 ",
"p {.I.w.e.e.y.d.q.y.e.q.e.e.e.e.q.e.e.e.e.e.e.e.e.e.e.e.e.e.e.e.e.e.e.e.e.e.e.e.e.e.e.w.e.d.h.I.[.p ",
"V @XF.r.y.y.t.d.d.g.g.f.d.d.y.e.e.y.e.e.e.e.e.e.y.e.e.e.e.e.e.e.e.e.e.e.e.e.e.e.e.e.e.e.e.e.y.G.#XV ",
"Q ;XU.g.y.y.d.h.H.R.R.L.P.F.g.t.y.y.e.e.e.e.e.y.t.w.e.e.e.e.e.e.e.e.e.e.e.e.e.e.e.e.e.e.e.y.y.S.>XY ",
"~ -XH.g.y.q.s.A.L.;.C g Y 7.K.g.d.y.e.e.e.e.e.d.s.t.e.e.e.e.e.e.e.e.e.e.e.e.e.e.y.e.e.e.e.e.y.f.L./ ",
"~ 2XG.0.y.y.f.Y.:.2 # # # 8 8.R.g.y.e.e.e.e.y.g.i.i.y.e.e.e.e.e.e.y.e.e.e.e.e.e.e.e.e.e.e.e.e.s.K._ ",
"/ 2XS.y.e.y.p.v.f .       X Z L.A.y.e.e.e.q.y.h.9.9.t.e.y.y.e.e.e.e.e.e.e.e.e.e.e.e.e.e.e.e.y.f.L._ ",
"~ >Xg.e.e.d.N.k.2 . .   X   t b.A.y.e.e.e.e.d.f.4.4.g.r.y.y.q.e.e.e.e.e.e.e.e.e.e.e.e.e.e.e.y.S.3X^ ",
"Y -Xg.y.e.d.A.c.6 .   . . . g v.S.y.q.e.e.q.y.Z.3.3.S.e.q.e.e.e.e.e.e.e.e.e.e.e.e.e.e.e.e.e.y.A.1XT ",
"V #XA.y.e.r.s.P.A # + #   < ) 5Xg.y.e.e.e.e.d.F.' 2.S.y.y.q.e.e.e.e.e.e.e.e.e.e.e.e.e.e.e.y.y.F.%XZ ",
"c  XF.w.y.e.t.F.9XC 3 - 8 ( :XH.u.y.y.y.e.q.d.G.' 6.A.d.y.q.e.w.e.e.e.e.e.e.e.e.e.e.e.e.e.y.d.I. Xc ",
"5 ^.R.y.y.y.y.d.D.L.c.;.k.P.G.t.y.w.y.e.e.e.d.F.` 5.N.y.q.e.e.e.e.e.e.e.e.e.e.e.e.e.e.e.y.y.d.R./.7 ",
": Q.<Xd.y.q.y.y.g.S.S.A.S.d.w.w.e.e.y.e.e.e.d.V._ 5.F.d.e.e.e.e.e.e.e.e.e.e.e.e.e.e.e.e.y.d.g.8X$.> ",
"% N $XA.d.0.y.e.d.d.d.g.y.y.y.y.e.e.e.e.e.e.d.V.^ 5.F.d.e.e.e.e.e.e.e.e.e.e.e.e.e.e.e.e.y.s.A.;XN % ",
"X 0 ).Y.p.t.e.q.y.y.y.e.y.e.y.e.e.e.e.e.e.e.d.B.! -.F.t.q.e.e.e.e.e.e.e.e.e.e.e.e.y.e.0.t.s.T.'.w X ",
"X * { tXC.d.y.y.q.e.e.e.e.e.e.e.e.e.e.e.e.y.d.B.Y -.I.d.e.e.e.e.e.e.q.y.e.e.e.e.y.y.e.e.y.F.tX{ >   ",
"  X s oXY.s.t.y.e.e.e.e.e.e.e.e.e.e.e.e.e.q.g.M.Y -.I.d.e.e.e.e.e.e.y.y.e.w.w.e.d.y.e.y.h.Y.oXs o   ",
"  . = | eXS.t.w.e.e.e.e.e.e.w.e.e.e.e.e.e.y.S.M.T =.I.d.e.e.e.e.e.e.d.d.y.w.w.e.e.q.e.y.F.;X..1 X   ",
"    . l '.Y.s.w.e.e.y.y.y.w.e.w.e.e.e.e.e.y.g.M.Z *.R.d.e.e.e.e.e.e.y.t.y.w.e.w.e.e.q.d.5X[.s o     ",
"    . - H +XF.s.t.y.h.h.y.e.w.e.e.e.e.e.e.d.Z.M.C *.T.d.e.e.e.e.e.e.e.e.w.e.e.e.e.e.g.R.XX[ =       ",
".     X 4 ^.>XN.g.d.d.d.y.e.w.e.e.e.e.e.e.d.A.v.V <.Y.d.y.e.e.e.e.e.e.e.e.e.e.e.q.r.U.rX>.4   @     ",
"        o u _.6XF.h.y.y.q.e.e.e.e.y.e.e.y.d.F.b.v :.4Xg.y.e.e.e.e.e.e.e.q.y.y.y.d.H.tX(.l o         ",
"          % b `.4XS.h.y.y.e.q.e.w.e.e.e.e.g.F.x.n #.Y.s.q.e.e.e.e.y.q.e.d.y.h.g.A.rX].N &           ",
"O   @       - S `.5XH.y.e.e.e.e.y.e.e.e.e.g.F.k.a +.Y.d.y.e.e.e.e.e.y.e.q.r.g.U.6X).D %       X     ",
"    O     X   - j 1.6XT.g.t.y.y.y.y.e.e.0.d.F.7.i @.Y.d.e.e.e.e.y.y.q.0.d.G.m.tX(.b * X X           ",
"      O         & s !.@X5XF.i.d.r.r.e.e.y.d.I.6.e @.Y.s.e.e.e.e.w.t.w.s.f.4X9X!.u %   X X   O O     ",
"  X         O +     0 E '.rX4XU.S.d.y.y.d.f.R.] q @.4Xs.y.e.e.t.d.S.S.Y.2X{.E 5 X   X       O ; O   ",
"  .       O     @   X & s o..XrXm.H.g.d.f.A.3X-.9 %.7XZ.d.y.d.S.G.M.eXXX..s : X X X     X X O O     ",
"O           O           X < h } c.:X8XY.I.<XwX#.5 Q.iXL.I.I.Y.3X:X}.} b 1 X       O   X             ",
"                            o = r G X._.[.yXuXQ.5 W.uX=X*X{._.W F r = o                             ",
"                              X   % 1 q c Z W J , I &.R U d q : %   X X                             "
};
