/* XPM */
static char *moveup1709543042[] = {
/* columns rows colors chars-per-pixel */
"50 50 218 2 ",
"   c #010201",
".  c #080600",
"X  c #030901",
"o  c #0B0C00",
"O  c #02020A",
"+  c #09050B",
"@  c #0A090F",
"#  c #110F00",
"$  c #0B1300",
"%  c #0A1700",
"&  c #151500",
"*  c #131A00",
"=  c #1A1C00",
"-  c #030212",
";  c #211E00",
":  c #0B2C00",
">  c #142300",
",  c #1B2200",
"<  c #1F2B00",
"1  c #232400",
"2  c #2B2D00",
"3  c #2F3100",
"4  c #2D3A00",
"5  c #343401",
"6  c #343E01",
"7  c #383E02",
"8  c #294104",
"9  c #3B4403",
"0  c #3C450D",
"q  c #334100",
"w  c #434A03",
"e  c #4B4D03",
"r  c #464B0B",
"t  c #44470A",
"y  c #465400",
"u  c #4A5302",
"i  c #4C5C00",
"p  c #4E5309",
"a  c #475900",
"s  c #525D04",
"d  c #5A5E00",
"f  c #51540B",
"g  c #525C0C",
"h  c #585C08",
"j  c #4C4B13",
"k  c #495211",
"l  c #535A12",
"z  c #5C630B",
"x  c #556404",
"c  c #5C6314",
"v  c #5F6719",
"b  c #606C00",
"n  c #696B00",
"m  c #647300",
"M  c #6B7B00",
"N  c #637605",
"B  c #767B03",
"V  c #77790C",
"C  c #636915",
"Z  c #646E1B",
"A  c #696D16",
"S  c #757E1C",
"D  c #5A6520",
"F  c #567225",
"G  c #6D7023",
"H  c #787B23",
"J  c #5C7E42",
"K  c #768400",
"L  c #7C8A00",
"P  c #7A8704",
"I  c #799001",
"U  c #7C8125",
"Y  c #78912C",
"T  c #808B00",
"R  c #869502",
"E  c #8B9A01",
"W  c #8D930D",
"Q  c #888A1D",
"!  c #8FA002",
"~  c #96A605",
"^  c #A9B707",
"/  c #878A2D",
"(  c #8C9326",
")  c #8A912A",
"_  c #829E27",
"`  c #8C9535",
"'  c #8C9D3C",
"]  c #8D9935",
"[  c #959C34",
"{  c #92973A",
"}  c #979C3A",
"|  c #929927",
" . c #97A828",
".. c #9EAA2C",
"X. c #9DA43A",
"o. c #9CA830",
"O. c #A1A22A",
"+. c #ADBD24",
"@. c #A6B42F",
"#. c #ABB62B",
"$. c #ADB827",
"%. c #A1AC35",
"&. c #A4AE3E",
"*. c #AAB439",
"=. c #B4B937",
"-. c #B5B926",
";. c #B9C502",
":. c #B6C316",
">. c #BDC22A",
",. c #B6C323",
"<. c #BAC73F",
"1. c #C0CB02",
"2. c #CAD500",
"3. c #E4EF0C",
"4. c #EDF302",
"5. c #EFF40B",
"6. c #F3F703",
"7. c #FCF701",
"8. c #F6FC03",
"9. c #FEFE02",
"0. c #F5F60A",
"q. c #F6FC0B",
"w. c #FDFD0B",
"e. c #EEF919",
"r. c #ECF512",
"t. c #F4F713",
"y. c #F5FC13",
"u. c #FCFD12",
"i. c #F3F519",
"p. c #F6FC1B",
"a. c #FBFD1B",
"s. c #C7CE26",
"d. c #C5D22D",
"f. c #CBCF30",
"g. c #CFDA36",
"h. c #D5DE34",
"j. c #D3D73A",
"k. c #DDE535",
"l. c #DEE33C",
"z. c #DFE930",
"x. c #E2EE2D",
"c. c #EDF42A",
"v. c #F2F622",
"b. c #F4FC24",
"n. c #FAFE23",
"m. c #F4F72E",
"M. c #F4FC2B",
"N. c #F9FE2B",
"B. c #F8F721",
"V. c #E7EE38",
"C. c #ECF233",
"Z. c #EEFA34",
"A. c #E6F23C",
"S. c #ECF43C",
"D. c #F2F434",
"F. c #F4FB33",
"G. c #FAFE34",
"H. c #F1F63D",
"J. c #F4FB3B",
"K. c #FAFD3A",
"L. c #999A43",
"P. c #819C55",
"I. c #88A042",
"U. c #9CA240",
"Y. c #ADBD44",
"T. c #ADB644",
"R. c #B2B94A",
"E. c #B5BD45",
"W. c #A2A647",
"Q. c #BAC445",
"!. c #B6C148",
"~. c #C5CC44",
"^. c #C3CB48",
"/. c #C5C94A",
"(. c #CAD145",
"). c #C7D34E",
"_. c #CAD04C",
"`. c #C5D043",
"'. c #D5DC4F",
"]. c #CED654",
"[. c #CEDA52",
"{. c #CBD655",
"}. c #D4D958",
"|. c #DAE349",
" X c #DAE649",
".X c #DAE452",
"XX c #DCE953",
"oX c #E4EC45",
"OX c #E1E64B",
"+X c #E4EC4C",
"@X c #E0E646",
"#X c #E7F242",
"$X c #ECF344",
"%X c #ECF943",
"&X c #ECF44C",
"*X c #EDFA4A",
"=X c #E7F44D",
"-X c #F5FA44",
";X c #FAFF45",
":X c #F3F64A",
">X c #F3FC4C",
",X c #FBFF4B",
"<X c #E3ED51",
"1X c #E2E659",
"2X c #E1E457",
"3X c #EEF554",
"4X c #EFF359",
"5X c #E0F252",
"6X c #F0F751",
"7X c #F5FB55",
"8X c #F2FB5B",
"9X c #F8FB54",
"0X c #D9DE60",
"qX c #DDED68",
"wX c #DCF26C",
"eX c #D6E973",
"rX c #E9ED65",
"tX c #F4FB60",
/* pixels */
"          O O O O       O O   o   % 1 q i M L Y J : F Y N i q < $ .             O O                 ",
"          O O O X           o , 9 Z o.Q.[.XX5XwXP.8 I.eXqX}.Y.} G t ; o               O     .       ",
"O O       X           .   1 C | (.oX*X-XH.J.J.8XI.8 O.3X-XF.H.>X3X~.) p 1 . X       + +             ",
"O O                 o = f } _.:XD.N.a.i.p.B.b.:Xo.q +.-XB.a.p.a.b.J.8X.XL.j *           O           ",
"O     +     X X   o 5 H _.&XJ.M.u.u.w.7.w.u.n.-X%.9 -.D.p.w.w.w.q.t.b.-X6X~.U 7 X   X       .       ",
"O O             & t W.rX-Xb.y.6.7.9.9.9.9.0.t.J.o.w >.K.a.w.9.9.7.w.u.t.b.;X|.&.r %   X     +       ",
"O O o   O     = h /.8XC.n.u.6.9.9.9.9.9.9.8.u.;Xo.y >.M.p.9.9.9.9.9.u.w.w.y.N.*XQ.v * X     O       ",
"O   .       & C _.#XK.b.q.8.9.9.9.9.9.9.9.8.q.Z. .i d.F.p.9.9.9.9.9.w.w.9.9.q.b.*XQ.v *   O         ",
"        + # c /.-Xb.p.q.w.9.9.9.9.7.9.9.8.8.y.J.%.x j.m.p.w.9.9.9.9.9.w.7.9.w.u.M.-X<.z $   X       ",
"    O   # j E.>Xv.q.w.w.9.9.9.9.9.w.9.9.9.8.y.J.@.x h.M.u.w.9.9.9.w.9.9.9.9.0.u.u.N.>X=.p X   X     ",
"X       5 } *XM.u.q.q.w.w.9.9.9.7.9.9.9.9.9.u.F.@.m k.b.u.9.7.9.9.9.9.9.9.9.u.u.u.t.M.*XX.4 X       ",
"      = / 1XG.q.8.9.w.w.w.9.9.9.9.9.9.9.9.9.u.F.@.M z.b.u.9.9.9.9.9.9.9.9.7.0.w.u.u.t.M.|.U *       ",
"    o f ~.,Xp.9.9.9.9.w.w.9.w.9.9.9.w.9.8.9.u.F.@.K z.p.u.w.9.9.9.9.9.w.9.9.9.w.0.u.9.a.J.f.k       ",
"  X 1 ] &Xv.q.8.9.9.9.9.w.w.9.9.9.w.w.w.9.7.q.F.#.K x.p.w.w.9.9.9.9.w.8.8.8.9.9.0.w.9.0.p.7XI.*     ",
"  o g }.-Xp.u.9.w.w.9.9.9.9.8.8.9.9.9.9.9.9.u.F.#.L c.u.w.9.9.9.9.9.9.8.8.8.8.9.w.u.w.w.5.J.).l .   ",
"X , ) tXM.u.8.9.w.w.9.9.9.9.9.9.9.9.9.9.9.9.u.K.$.L c.w.9.9.9.9.9.9.9.9.9.8.9.9.0.w.w.w.w.M.4X/ * X ",
"  t (.H.u.8.8.9.9.w.w.9.9.9.9.9.9.9.9.9.9.9.u.F.+.R M.q.9.9.9.9.9.9.9.9.9.9.9.7.0.w.7.9.w.a.K.f.9   ",
"$ A +Xn.w.9.9.8.9.9.w.9.9.9.9.9.9.9.9.9.9.9.q.M.+.E M.8.9.9.w.9.9.9.9.u.w.q.u.w.w.w.9.9.w.t.B.oXv % ",
", ' 9Xn.q.9.9.8.9.w.9.w.9.9.9.9.9.9.9.9.9.9.q.M.+.~ M.w.9.9.9.w.8.w.8.0.a.n.M.v.u.q.w.u.0.a.a.S.] > ",
"q R.-Xp.w.9.9.7.9.9.w.9.9.9.9.9.9.9.9.9.9.9.w.b.,.~ b.w.9.9.9.9.7.w.y.N.$Xf.s.j.C.M.a.u.q.a.0.K.!.4 ",
"s ).J.u.w.9.9.9.8.9.9.w.9.9.9.9.9.9.9.9.9.9.w.b.:.^ b.9.9.9.9.9.9.q.G.@XQ 5 ; 2 V OXb.y.q.6.a.F.[.a ",
"m XXG.w.9.9.9.9.9.9.w.9.8.9.9.9.9.9.9.9.9.9.w.b.:.^ p.9.9.9.9.w.9.a.J.W 2   .   # V S.y.8.u.u.m..Xm ",
"L =XN.w.9.7.9.9.9.9.9.w.9.9.9.9.9.9.9.9.9.9.w.a.;.;.p.9.9.7.9.w.8.N.V.d .       . 5 h.n.8.8.9.N.oXL ",
"E &Xi.9.9.9.9.9.9.9.w.9.9.9.9.9.9.9.9.9.9.9.9.p.;.;.a.w.9.9.9.w.u.M.j.u .   o     5 s.e.u.8.9.a.#XE ",
"E #Xa.w.9.9.9.9.9.9.9.w.9.9.9.9.9.9.9.9.9.9.w.u.2.2.0.w.9.9.9.8.8.n.V.B           e V.i.0.w.w.a.S.E ",
"! #Xn.9.9.9.9.9.9.9.9.9.9.8.9.9.9.9.9.9.9.9.9.w.r.3.w.9.7.9.9.9.u.t.G.>.7 & o o 3 O.J.a.u.0.w.a.S.! ",
"R =Xn.w.9.9.9.9.9.9.9.9.9.9.9.9.9.9.9.9.8.9.9.w.u.q.w.9.9.w.9.9.8.w.n.F.>.B d n =.$XB.q.9.w.u.B.#XE ",
"P 5XN.w.9.9.9.9.9.9.9.9.9.9.9.9.9.9.9.9.8.9.9.9.w.q.w.9.9.9.9.9.9.8.6.a.G.S.oX:X-Xm.y.w.7.w.u.N.oXL ",
"N .XK.w.9.9.9.9.9.9.9.9.9.9.9.w.9.9.9.9.9.9.9.9.9.8.9.9.9.9.9.9.9.9.9.q.u.p.n.i.t.u.w.9.9.w.q.M..Xm ",
"s /.K.u.w.9.9.9.9.9.9.9.9.9.9.9.9.9.9.9.8.9.9.9.9.9.9.9.9.9.9.9.9.9.9.7.9.8.7.w.9.w.7.7.9.w.q.F.Q.a ",
"6 *.J.y.9.9.9.8.9.9.9.9.9.9.9.9.9.9.9.8.8.9.9.9.8.9.9.9.9.9.9.9.w.7.9.9.9.9.7.9.7.w.7.w.9.8.u.J.!.8 ",
", X.-Xi.w.9.9.9.9.9.9.9.9.9.9.9.9.9.9.9.9.9.9.9.9.9.9.9.9.9.9.9.w.9.9.9.9.9.9.7.w.9.9.9.8.u.y.%X' : ",
"o Z  Xb.q.9.9.9.8.w.8.8.9.9.9.9.9.9.9.9.9.9.9.9.9.9.9.9.9.9.9.9.9.9.9.9.9.9.9.9.w.9.9.9.8.w.N.+XD % ",
"X 0 `.Z.a.7.9.9.9.8.w.9.9.9.9.9.9.9.9.9.9.9.9.9.9.9.9.9.9.9.9.9.9.9.w.w.9.9.9.7.7.w.9.9.8.a.J.Q.0   ",
"  , ( *Xp.9.9.9.9.9.9.9.w.9.9.9.9.9.9.9.9.9.9.9.9.9.9.9.9.9.9.9.9.9.w.w.u.w.9.9.7.9.7.w.8.b.+X) >   ",
"  o e }.m.q.9.9.9.9.9.9.w.9.9.9.9.9.9.w.9.9.9.9.9.9.9.9.9.9.9.9.9.9.8.w.q.9.9.9.9.w.7.u.e.J.}.f o   ",
"    1 L.$Xi.w.9.w.0.w.w.w.9.8.9.w.9.9.9.9.9.9.9.9.9.9.9.9.9.9.9.9.9.9.8.8.8.9.9.9.w.9.t.b.&X} =     ",
"    . j _.;Xt.9.7.7.w.w.w.9.8.9.9.w.9.9.9.9.9.9.8.9.8.9.9.9.9.9.9.9.9.8.8.8.8.9.9.7.w.i.,X^.r X     ",
"  .   = H 2XK.y.0.9.w.w.w.w.w.8.9.9.9.9.9.9.9.9.9.9.9.9.9.9.9.9.9.9.9.9.9.9.8.9.9.7.y.G..XS * X     ",
"        2 U.&Xb.u.w.w.9.w.w.w.9.9.9.9.9.9.9.9.9.9.9.9.9.9.9.9.9.9.9.9.9.9.w.9.9.8.u.M.3XX.2 X       ",
"        X 0 !.*Xb.u.9.7.9.w.w.w.9.9.9.9.9.7.w.w.w.9.w.9.9.9.9.9.w.0.u.w.w.9.9.9.u.v.#XT.r           ",
"      X   % g <.%Xp.u.w.w.9.w.w.9.9.9.9.9.9.9.9.w.w.9.9.9.9.9.9.9.u.u.w.w.9.w.y.b.>XQ.g $   X     O ",
"+ .     X X % g Q.-XM.4.w.9.7.9.9.9.9.9.9.9.9.9.9.9.9.9.9.9.9.9.9.9.7.7.9.w.t.m.3X!.c %     O       ",
". O + O   X X * x *.6XK.i.w.w.9.8.9.9.9.9.9.9.9.9.9.9.7.9.9.9.9.9.8.9.w.0.B.;X4XR.l $   o     O     ",
"O   - O   X     $ r X.OXJ.b.y.q.w.8.9.9.9.9.9.9.9.9.9.9.9.9.9.9.9.6.8.a.v.,X1X} t $   X     O O     ",
"+ O O O           o 5 H ~.3XJ.M.n.u.q.u.w.9.9.9.9.9.9.9.9.9.9.q.q.n.M.S.7X^.A 3 .     X     O       ",
"  .             +     & j { }.&XC.b.B.p.p.u.q.w.w.9.9.q.w.u.u.p.M.S.4X].) w =   .         O   O     ",
"          O O O O @ O   o = u ( ~.@X7X,XJ.M.n.p.n.n.n.N.G.K.H.-XOX/.) u , X     O           O       ",
"            O               o * q v ` R.{.+X#XA.A.A.&X+X.X).T.` C 7 * o X                 O         ",
"      .     O O         O O   o   % , 4 y x K R E E T K x u 4 * $ X X                               "
};
