/* XPM */
static char *wall1709668959__1_1709669040[] = {
/* columns rows colors chars-per-pixel */
"50 50 212 2 ",
"   c #030302",
".  c #070908",
"X  c #01060C",
"o  c #040D2B",
"O  c #070F28",
"+  c #011426",
"@  c #011A24",
"#  c #01142A",
"$  c #0A122A",
"%  c #011A2B",
"&  c #081525",
"*  c #030F33",
"=  c #060F38",
"-  c #021434",
";  c #031B34",
":  c #03143B",
">  c #041839",
",  c #00202A",
"<  c #060E45",
"1  c #051543",
"2  c #011A44",
"3  c #06144A",
"4  c #09154B",
"5  c #031A49",
"6  c #081245",
"7  c #061651",
"8  c #0A1454",
"9  c #011E54",
"0  c #0C155D",
"q  c #011D5C",
"w  c #11155F",
"e  c #00224E",
"r  c #012155",
"t  c #01215A",
"y  c #0E1565",
"u  c #051D64",
"i  c #091C63",
"p  c #051D6B",
"a  c #091D6A",
"s  c #0D136B",
"d  c #121563",
"f  c #13156C",
"g  c #051D71",
"h  c #0B1C75",
"j  c #0F1877",
"k  c #111570",
"l  c #121F79",
"z  c #042065",
"x  c #09216A",
"c  c #04216D",
"v  c #042376",
"b  c #0A2074",
"n  c #002A77",
"m  c #06247A",
"M  c #0A217D",
"N  c #022879",
"B  c #003C7B",
"V  c #325D6E",
"C  c #355A68",
"Z  c #345D71",
"A  c #36606E",
"S  c #336272",
"D  c #0D1D84",
"F  c #0E1F89",
"G  c #121D83",
"H  c #141E8B",
"J  c #151F92",
"K  c #1C1E95",
"L  c #1E1D9D",
"P  c #201F96",
"I  c #211E9C",
"U  c #0C2083",
"Y  c #19208D",
"T  c #162081",
"R  c #033584",
"E  c #023A86",
"W  c #0A3986",
"Q  c #03368C",
"!  c #0A358B",
"~  c #033A8B",
"^  c #0B3A8C",
"/  c #0A3486",
"(  c #13378B",
")  c #1D2093",
"_  c #1D219E",
"`  c #162095",
"'  c #043793",
"]  c #033A92",
"[  c #0A3B92",
"{  c #07379A",
"}  c #0B399D",
"|  c #09369D",
" . c #14389A",
".. c #153994",
"X. c #23209B",
"o. c #1F1DA5",
"O. c #211EA5",
"+. c #231DAA",
"@. c #0C36A0",
"#. c #0C3BA5",
"$. c #0E38A8",
"%. c #1137A3",
"&. c #1935AE",
"*. c #133AAC",
"=. c #1338A3",
"-. c #1437B2",
";. c #1A37B5",
":. c #1E3BB4",
">. c #1B35BC",
",. c #1C39BA",
"<. c #2120A2",
"1. c #2138BC",
"2. c #09459F",
"3. c #05469A",
"4. c #367E94",
"5. c #0946A0",
"6. c #125BBA",
"7. c #0A63B7",
"8. c #1566B8",
"9. c #387CA2",
"0. c #1E36C3",
"q. c #2437C3",
"w. c #2339C2",
"e. c #2839C7",
"r. c #2437C9",
"t. c #2A36CD",
"y. c #2D39CD",
"u. c #2338C9",
"i. c #3138CF",
"p. c #2B36D3",
"a. c #2A39D2",
"s. c #2F37DA",
"d. c #2F39D8",
"f. c #3337D1",
"g. c #3139D3",
"h. c #3137DB",
"j. c #3E88A5",
"k. c #2E8CC6",
"l. c #2C86CA",
"z. c #2D8ACA",
"x. c #2888C3",
"c. c #3189C5",
"v. c #3286CB",
"b. c #328ACC",
"n. c #388CC8",
"m. c #2891CA",
"M. c #3794CF",
"N. c #2C87D0",
"B. c #3986D1",
"V. c #348AD2",
"C. c #398AD4",
"Z. c #3E87DB",
"A. c #3C8ADA",
"S. c #3288D5",
"D. c #2B93D2",
"F. c #3996D6",
"G. c #3DA4DE",
"H. c #3B89E1",
"J. c #3C85E1",
"K. c #4488DD",
"L. c #4688DB",
"P. c #499FD8",
"I. c #41A4DC",
"U. c #448CE3",
"Y. c #4B8AE4",
"T. c #4D89ED",
"R. c #4686E5",
"E. c #5E86EB",
"W. c #5389EB",
"Q. c #5A8AEB",
"!. c #4D9CE1",
"~. c #538AF1",
"^. c #5C89F2",
"/. c #49A0E7",
"(. c #46A9E0",
"). c #59BDEF",
"_. c #4CCBEE",
"`. c #52C5EE",
"'. c #5BC6ED",
"]. c #53C8ED",
"[. c #5BCAED",
"{. c #4EC6F1",
"}. c #4ECBF3",
"|. c #4BCAFC",
" X c #53C5F2",
".X c #5BC5F5",
"XX c #53CBF3",
"oX c #5BCAF4",
"OX c #5CC5FA",
"+X c #5ACDFD",
"@X c #53C8FB",
"#X c #4AD3F3",
"$X c #56D5F7",
"%X c #60C5EF",
"&X c #62C8EE",
"*X c #68D2EC",
"=X c #63C5F4",
"-X c #6AC7F4",
";X c #63CBF2",
":X c #6ACAF6",
">X c #65C6FB",
",X c #6CC5FB",
"<X c #6EC9FC",
"1X c #78C6F7",
"2X c #71CAF5",
"3X c #75C9FD",
"4X c #7BC9FE",
"5X c #7CC5F8",
"6X c #6CD3F4",
"7X c #6FDBF7",
"8X c #71D2F8",
"9X c #74C8EA",
/* pixels */
"  Z 6X$X.X).>X+X&X=X:X2X4X4X4X4X4X4X4X3X<X:X=X%XOXoX.X.XoX X X`.`.`.`.]._.`.XX`.{.`.{.|.|.@X'.6XS   ",
"V 9.P.F.C.L.R.J.U.Y.Y.W.Q.^.^.^.^.^.^.Q.W.Y.K.L.A.A.C.V.V.b.b.b.k.z.z.z.v.z.l.z.b.v.v.l.N.V.V.I.4.S ",
"*XI.8.5.[  .@.#.:.:.1.q.r.p.g.i.h.s.p.p.r.q.>.>.#.@.| { ' ' ] ] E ~ E ~ ~ Q Q Q ^ W R / / ! 3.7.(.2X",
"$XD.] N a a g m G G K L o.+.+.+.X.I K ) Y G l b x x i z q t t t t t t q q q q q q q r 9 7 i N 3.D.;X",
"XXb.^ x 5 : 5 1 3 7 0 y k f k k f f s y 0 0 7 3 1 1 : > - - - % - - - - : > : : - : ; % - 1 u ^ S.'.",
"OXB.( 7 - # ; > $ - - 1 1 1 6 6 3 3 5 1 : : : : = : : - - - - - + + # + # # # - - $ + @ # : a  .A.).",
"@Xb.^ r ; @ + + $ # % - # # # # - % - : - - - % # # # # # # + + & + + + + # # @ o o + + @ 1 p %.Z.).",
"#Xx.B 5 % @ + & o # $ # @ # + + + + + @ # @ # # + + + + + + + + @ + + + + + + @ # o $ & ; 5 v $.A.+X",
"XXl.R 9 - o * o # $ # # o + + + o # o + + + + + # + # # # # # - + $ # # # + + & $ # + + - 7 M ;.H.'.",
"oXb.R q : - - o + # # # + # o + # + o + + + + + & % $ # # # # # # # # # + + + & # # # + = 7 U ;.Y.&X",
"+Xv.R q : - # + & + + + # # - # # # # + O O # # # + # # # # $ # # # # - # # # + o # # $ = 8 U ,.L.-X",
"oXz.R q : $ % + & & + + # # # # # # o + + + # # # # # # # # # - # # # # # # # o $ # # # 6 0 Y r.T.,X",
"].z.E q : # # @ + + + + # @ + + # # # # # # # # # # # # # # # # # # # # # # o + + + # - : y _ y.~.<X",
"XXz.~ t : # # # o # + + # + + + # + # # # # # - # # + # # # # # # + o # # # # + + + # # 6 s _ y.E.1X",
"XXb.E r : # - @ # # # # + # + # # # # # # # # # # + + # # # # # # # # # # # + # + # # - 6 f X.g.E.5X",
"@Xb.E r - # $ # # # # # # + # - + # # + # + + + # # # # # # # # # + # # # # % # + # # - 3 f <.f.^.4X",
"].b.' 9 - # # + # # # # # # # + # # + # # # # # # # # # # + # # # # + # # + # # @ # # - 3 f I g.^.4X",
"'.b.Q 9 - - + @ - # @ # # + + + # # # # # + # + + # + # # # # # # # # # # # # # # # # - 6 f I g.^.4X",
"[.c.' 9 # - + + # # # # # # # + # # # + # # # # # # + # # + + # + # # + # # # # # # - - 6 f I y.^.4X",
"[.b.' 9 - - + + # # # # # # # + + # # # # # + # # # # # # # # # # # # # # + @ # # # # - 6 d L y.^.4X",
"[.n.' q - * # + @ # # # # # # # # # + # # # + # # # # # # # # # # # + # # # # # o $ # - 1 d K r.~.<X",
"oXb.{ u : - + + # # @ # # # # # # # # # + # # # # # + # # + # # # # # # # # % # # # # # > 0 H q.T.,X",
"oXC.{ u : : # + + # # # # # # + + # # # # # # # # + + # # + + # # + # # # # # # o # # # > 0 H ,.U.=X",
";XC.} z 1 : # + @ # # - # # # + # # + # # # + # # # # # # # # # # # # # # # # # # $ # # - 8 D >.U.%X",
"[.A.-.h 1 - + @ # # # # # # # # # # # # # # # # # # # # # # # # + # # + # # o # + + # # > 4 m -.A.=X",
"[.K.;.h 1 : # + # $ # # # + + # # @ + # # # + # # + # + + @ # # # # # # # # # # # + # % - 6 a $.A.=X",
";XK.,.M 5 : # + # # # # # # + # # # # # + # + # # + # # # + # # # # # # # o # # @ # # # - 6 p @.C.=X",
":XY.,.G 7 : # # # # + # # # # # # # + # # # # # # # # # # # # # + # # # # # # # # + # # $ : z } C.=X",
":XW.q.H 8 1 # + # o + # # # + # # # # # # # + # # # # # # # # # + # # + # # # o # + + # - : z [ V..X",
"3XW.e.K w 6 # # + # # # + # # # # + # # # # # # # # + # # + # # # # # # # - # # # # + # $ - q ] V.'.",
"4XQ.t.K 0 3 # # # # # # # # # # # + + # # + + # # + + # # + + # # # # # # # # # # + % # - : t ] b.[.",
"3X^.f.I d 3 - # # # # @ # # # # # # # # # # # # # # # # # # # # + # # # # # # # o & % # # > t ~ k.].",
"4XQ.g.X.k 3 - - + # # # # # # + # + # # + # # + # # # # # + + + @ # # # # $ + + o # $ # # > r ~ n.XX",
"4XQ.g.I f 6 # # + + + # # # # + # # # # # # # # # # + # # # + # # # # # # # # + # # % - # - t ~ k.XX",
"4XQ.g.I k 3 # + + + # # # # # # # # # # # # # # # # # # # # # # # # # # # + + # # # - # # - r ~ c.XX",
"4XQ.h.X.k 3 # + + # # # # # # # + # # + + # # + # + # # # # # # @ # # # # # + # o # # # % ; r ~ b.XX",
"4XQ.d.L k 1 - % + + + # # # # # # + # # # # + # # # # # % # # # # # # # # # + + # $ # # $ - t ^ b.XX",
"3XQ.a.L s 1 # # $ # # o # # # + # # # # + # # # + # # # # # # # # # + # % # + + # % # # # - t ~ k.#X",
"8XY.e.Y y : @ + # # # # # # # + + # # # # # # # # # @ # # # @ # # # # $ $ # + + # + # # # = q Q k.XX",
"<XL.,.G 0 : # + ; # # o # # + + # # # + # # + # + + # # # # # # # # # # # o + # # & & % ; > q Q n.[.",
":XU.&.G 7 - - # # # + + + # # # # # + # # # # # + + + + + + # # # o # # + # # # @ # * o O - u Q b.XX",
"oXA.*.M 3 # $ $ o # # $ # # - # # + # # * # - # + + + + + + + + # + # # o o # $ o * o + O = q ! b.].",
"oXA.#.N 5 - $ $ o + + + + + + + + + $ % # # # # + & + # + + # # # # # # # + # % o * o + & ; t E k._.",
">XJ.@.g 1 @ @ + o # # + + + + + + + + + + + # + o + # - # # - ; % - % - # # @ % # o $ @ @ ; r E b.XX",
"OXK. .a : + @ @ * = - $ # $ # # % $ # # # - $ - - - - : : 6 5 6 1 1 1 : : 1 : > : - ; @ @ - q W C..X",
"'.b.^ u 1 $ % , = : : - - - : - # - - - - - : - : 6 3 8 8 0 w d f f f f f f d w 8 4 5 2 : < p ( V.XX",
"[.M.3.n z r r 5 9 9 r r r 9 9 9 e e r r r t t q x h h T G ) ) K X.<.<.+.o._ ` J D D m c p a m 5.M.$X",
"8X/.6.2.Q R W R ^ ^ Q Q Q Q ~ ~ ~ ~ ~ ' ] ] { ' } $.*.;.0.u.p.p.p.h.h.h.d.a.u.0.q.;.-. .....5.7.P.7X",
"A 4.I.m.z.S.l.x.k.k.k.k.k.c.c.c.l.l.l.k.z.v.S.C.K.Z.L.L.Y.W.~.Q.^.^.^.^.Q.Q.~.T.Y.U.H.U.A.S.F.!.j.C ",
"X S 2X;X X@X}.@X{.}.{.{. X`.{.{.].].`.`. X.XOXOX.X'.'.%X-X<X3X3X4X4X4X4X4X3X,X-X,X>XOX>X=X'.;X8XC . "
};
